<svg xmlns="http://www.w3.org/2000/svg" version="1.1" xmlns:xlink="http://www.w3.org/1999/xlink" width="16" height="16" x="0" y="0" viewBox="0 0 32 32" style="enable-background:new 0 0 512 512" xml:space="preserve" class=""><g><path d="M7 30H5c-1.7 0-3-1.3-3-3V15c0-1.7 1.3-3 3-3h2c1.7 0 3 1.3 3 3v12c0 1.7-1.3 3-3 3zM5 14c-.6 0-1 .4-1 1v12c0 .6.4 1 1 1h2c.6 0 1-.4 1-1V15c0-.6-.4-1-1-1zM17 30h-2c-1.7 0-3-1.3-3-3V5c0-1.7 1.3-3 3-3h2c1.7 0 3 1.3 3 3v22c0 1.7-1.3 3-3 3zM15 4c-.6 0-1 .4-1 1v22c0 .6.4 1 1 1h2c.6 0 1-.4 1-1V5c0-.6-.4-1-1-1zM27 30h-2c-1.7 0-3-1.3-3-3V10c0-1.7 1.3-3 3-3h2c1.7 0 3 1.3 3 3v17c0 1.7-1.3 3-3 3zM25 9c-.6 0-1 .4-1 1v17c0 .6.4 1 1 1h2c.6 0 1-.4 1-1V10c0-.6-.4-1-1-1z" fill="#000000" opacity="1" data-original="#000000" class=""></path></g></svg>