<svg xmlns="http://www.w3.org/2000/svg" width="543.412" height="562.517" viewBox="0 0 543.412 562.517"><g transform="translate(-827 -2357)"><g transform="translate(827 2919.517)"><path d="M27.105-88.659H73.982v-14.919H27.105Z" fill="#e7e8e5"/><path d="M345.558-327.006H298.681v-14.92h46.877v14.92" fill="#e7e8e5"/><path d="M47.832-69.845l-.316-14.92.316.318L36.114-84.3l-11.719.113L.956-84.1l.666-.667-.058,14.92-.607-.608L12.57-70.4l11.662.16Zm0,0-23.276.391-11.776.16L.956-69.237l-.606,0,0-.61L.29-84.765l0-.668.669,0,23.438.091,11.719.114,11.719.145.323,0-.007.312-.317,14.92" fill="#e7e8e5"/><path d="M346.947-165.106l-.316-14.92.316.317-11.719.145-11.72.113-23.437.091.665-.667-.059,14.92-.607-.608,11.613.057,11.663.16Zm0,0-23.276.391-11.776.16-11.824.057-.607,0v-.611l-.059-14.92,0-.668.669,0,23.437.091,11.72.113,11.719.145.323,0-.007.312-.316,14.92" fill="#e7e8e5"/><path d="M320.8-146.293l-.316-14.92.316.316-11.719.147-11.72.113-23.437.089.665-.665-.059,14.92-.607-.608,11.613.057,11.663.16Zm0,0-23.276.391-11.776.16-11.824.057-.605,0,0-.611-.059-14.92,0-.668.669,0,23.437.091,11.72.112,11.719.147.323,0-.007.312-.316,14.92" fill="#e7e8e5"/><path d="M294.751-165.106H247.875v-14.92h46.876v14.92" fill="#e7e8e5"/><path d="M539.2-69.845H492.32v-14.92H539.2v14.92" fill="#e7e8e5"/><path d="M513.047-546.8H466.171v-14.919h46.876V-546.8" fill="#e7e8e5"/><path d="M539.2-527.984l-.316-14.92.316.316-11.719.145-11.72.113-23.437.091.665-.665-.059,14.919-.607-.607,11.613.056,11.663.161Zm0,0-23.276.389-11.776.16-11.824.057-.605,0,0-.611-.059-14.919,0-.669.669,0,23.437.091,11.72.113,11.719.145.323,0-.007.313-.316,14.92" fill="#e7e8e5"/><path d="M73.982-546.8l-.317-14.919.317.316-11.719.145-11.719.113-23.438.091.666-.665L27.713-546.8l-.608-.607,11.614.056,11.662.161Zm0,0-23.276.391-11.775.161-11.825.056-.605,0,0-.612-.058-14.919,0-.669.669,0,23.438.091,11.719.113,11.719.145.323,0-.007.313L73.982-546.8" fill="#e7e8e5"/><path d="M160.336-331.319H17.734V-556.835h142.6ZM12.052-562.517v236.879H166.017V-562.517H12.052" fill="#e7e8e5"/><path d="M160.336-556.835v225.516H17.734V-556.835h142.6" fill="#fff"/><path d="M17.729-441.24h142.6v-5.68H17.729v5.68" fill="#e7e8e5"/><path d="M1.587-309.337H176.473v-16.3H1.587v16.3" fill="#d4d6d3"/><path d="M155.07-551.581H22.989V-416.2H155.07Zm-137.342-5.26h142.6v145.906H17.729V-556.841" fill="#d4d6d3"/><path d="M111.979-416.2h2.84V-556.841h-2.84V-416.2" fill="#d4d6d3"/><path d="M63.241-416.2h2.84V-556.841h-2.84V-416.2" fill="#d4d6d3"/><path d="M416.219-331.319h-142.6V-556.835h142.6Zm-148.284-231.2v236.879H421.9V-562.517H267.935" fill="#e7e8e5"/><path d="M416.219-556.835v225.516h-142.6V-556.835h142.6" fill="#fff"/><path d="M273.613-441.24h142.6v-5.68h-142.6v5.68" fill="#e7e8e5"/><path d="M257.471-309.337H432.356v-16.3H257.471v16.3" fill="#d4d6d3"/><path d="M410.955-551.581H278.873V-416.2H410.955Zm-137.342-5.26h142.6v145.906h-142.6V-556.841" fill="#d4d6d3"/><path d="M367.862-416.2h2.84V-556.841h-2.84V-416.2" fill="#d4d6d3"/><path d="M319.125-416.2h2.84V-556.841h-2.84V-416.2" fill="#d4d6d3"/><path d="M98.484-118.936H50.348L22.8-256.281,66.871-276.53,98.484-118.936" fill="#d4d6d3"/><path d="M236.254-118.936H98.484L66.871-276.53H204.642l31.612,157.594" fill="#e7e8e5"/><path d="M0-41.26H73.77V-192.625H0Z" fill="#d4d6d3"/><path d="M271.659-41.26H251.5L221.473-192.625h50.187V-41.26" fill="#d4d6d3"/><path d="M73.77-41.26H114.3V-192.625H73.77Z" fill="#e7e8e5"/><path d="M312.193-41.26H271.659V-192.625h40.533V-41.26" fill="#e7e8e5"/><path d="M271.659-118.936H114.3V-41.26H271.659v-77.676" fill="#e7e8e5"/><path d="M114.3-118.619H271.659v-33.9H114.3Z" fill="#e7e8e5"/><path d="M83.7-192.625,99-192.9l15.3-.191.46-.007,0,.471.172,17.713L115-157.2c.048,11.808.084,23.617.017,35.426-.037,11.809-.055,23.619-.2,35.428q-.148,17.714-.514,35.428-.375-17.714-.513-35.428c-.147-11.809-.166-23.619-.2-35.428-.067-11.809-.031-23.618.017-35.426l.063-17.715.172-17.713.464.464L99-192.352l-15.3-.273" fill="#d4d6d3"/><path d="M271.659-192.625c.315,11.852.463,23.705.585,35.559l.177,35.559-.175,35.56-.213,17.778-.375,17.78-.375-17.78-.213-17.778-.176-35.56.179-35.559c.123-11.853.271-23.707.585-35.559" fill="#d4d6d3"/><path d="M271.659-118.936c-13.113.316-26.225.463-39.339.585l-39.34.179-39.339-.176-19.669-.214-19.67-.375,19.67-.375,19.669-.213,39.339-.175,39.34.178c13.113.122,26.225.271,39.339.585" fill="#d4d6d3"/><path d="M271.659-152.516c-13.113.316-26.225.464-39.339.585l-39.34.179-39.339-.176-19.669-.213-19.67-.375,19.67-.375,19.669-.213,39.339-.175,39.34.177c13.113.123,26.225.271,39.339.585" fill="#d4d6d3"/><path d="M28.035-41.262,27.036-29,24.707-.665H14.025L11.7-29l-1-12.263H28.035" fill="#bebfbd"/><path d="M10.7-41.262H28.035L27.036-29H11.7l-1-12.263" fill="#999b9b"/><path d="M102.705-41.262l-1,12.263L99.378-.665H88.7L86.367-29l-1-12.263h17.337" fill="#bebfbd"/><path d="M85.369-41.262h17.337l-1,12.263H86.367l-1-12.263" fill="#999b9b"/><path d="M226.558-41.262l-1,12.263L223.23-.665H212.549L210.219-29l-1-12.263h17.337" fill="#bebfbd"/><path d="M209.221-41.262h17.337l-1,12.263h-15.34l-1-12.263" fill="#999b9b"/><path d="M301.245-41.262l-1,12.263L297.918-.665H287.237L284.907-29l-1-12.263h17.336" fill="#bebfbd"/><path d="M301.245-41.262l-1,12.263h-15.34l-1-12.263h17.336" fill="#999b9b"/><path d="M82.292-90.085s24.364-5.524,37.718-17.828,20.814-34.348,20.814-34.348a209.764,209.764,0,0,0-27.325,7.177c-2.179,2.333-6.331,7.139-8.266,11.689a56.075,56.075,0,0,1-.064-8.356,37.155,37.155,0,0,0-8.677,5.267c-11.073,9.689-14.2,36.4-14.2,36.4" fill="#fe5832"/><path d="M125.61-131.547c3.322-2.3,6.7-4.514,10.01-6.834a.19.19,0,0,0-.2-.324c-6.279,3.749-12.468,7.757-18.456,11.955-2.088,1.464-4.138,2.987-6.165,4.54.142-.241.282-.482.425-.722.731-1.224,1.5-2.425,2.272-3.624a51.8,51.8,0,0,1,5.172-6.9l-.12-.113c-1.894,2.187-3.789,4.352-5.522,6.673-.824,1.1-1.585,2.245-2.315,3.414-.378.607-.745,1.219-1.095,1.841-.117.207-.246.416-.365.628-3.151,2.473-6.218,5.054-9.147,7.781q-2.709,2.527-5.232,5.23c.941-2.948,1.764-5.931,2.857-8.833l-.161-.042c-1.061,3.045-2.221,6.105-3.042,9.235-1.867,2.016-3.652,4.105-5.333,6.28.029-.133.057-.267.088-.4.276-1.148.564-2.293.871-3.434.593-2.2,1.24-4.393,1.984-6.552a38.051,38.051,0,0,1,6.545-12.362l-.12-.115c-4.759,5.634-7.55,12.391-9.331,19.485q-.391,1.556-.743,3.123c-.125.552-.271,1.116-.366,1.684-.736.995-1.459,2-2.151,3.031A105.581,105.581,0,0,0,75.662-76.69a233.4,233.4,0,0,0-7.809,24.343c-.044.161.2.217.25.062C72.867-66.543,77.734-81,85.891-93.747c1.723-2.691,3.586-5.282,5.563-7.784a46.093,46.093,0,0,0,11.849-2.36,52.528,52.528,0,0,0,11.874-5.735,72.822,72.822,0,0,0,6.086-4.6l-.1-.128a48.537,48.537,0,0,1-11.167,6.756A60.8,60.8,0,0,1,97.7-103.471c-1.8.392-3.623.681-5.448.93a103.214,103.214,0,0,1,7.185-7.96c.821-.82,1.673-1.605,2.519-2.4a57.753,57.753,0,0,1,9.007-5.158c3.992-1.93,7.921-3.973,11.872-5.983,2.229-1.133,4.444-2.295,6.691-3.392l-.087-.141c-4,1.935-8.071,3.741-12.114,5.593-3.8,1.744-7.653,3.492-11.3,5.544-.158.088-.305.184-.46.275,3.3-2.873,6.715-5.614,10.211-8.252,3.231-2.44,6.507-4.827,9.836-7.131" fill="#17282f"/><path d="M124.225-118.985c-1.982.869-4,1.639-5.96,2.555-2.017.943-3.929,2.048-5.843,3.18l.079.128c1.942-.929,3.91-1.8,5.834-2.768,1.97-.991,3.918-2.051,5.939-2.936l-.048-.159" fill="#17282f"/><path d="M3.143-212.106a34.815,34.815,0,0,1,7.282,20.236c.08,2.185-.265,5.229-.518,8.811,9.085,4.849,15.9,13.588,15.9,13.588-5.161-3.1-12.245-4.352-16.067-3.847a48.17,48.17,0,0,0,.931,7.281c1.688-.1,4.946.128,10.334,2.044a23.109,23.109,0,0,0-9.318,1.852c4.343,13.816,17.252,28.012,52.9,34.04,0,0,6.878-24.2-6.314-50.165-10.681-21.012-55.13-33.84-55.13-33.84" fill="#fe5832"/><path d="M76.926-69.741Q76-78.6,74.617-87.4a352.615,352.615,0,0,0-7.189-34.9,140.123,140.123,0,0,0-5.146-15.9,24.122,24.122,0,0,0,.132-2.855q.037-1.712.017-3.425-.038-3.424-.327-6.839a81.87,81.87,0,0,0-2.191-13.365c-.652-2.539-1.409-5.04-2.154-7.553l-.159.048a98.36,98.36,0,0,1,2.632,13.341,125.512,125.512,0,0,1,1.2,13.379q.066,1.838.069,3.676c0,.519-.022,1.047-.042,1.575a114.731,114.731,0,0,0-6.006-12.433,151.154,151.154,0,0,0-12.2-18.253,7.7,7.7,0,0,0-.292-1.995q-.251-1.194-.518-2.385c-.366-1.629-.774-3.248-1.216-4.859-.886-3.229-2.056-6.352-3.066-9.54l-.159.048c.942,3.157,1.567,6.427,2.289,9.641.358,1.589.706,3.181,1.056,4.773q.263,1.192.509,2.388l.033.179q-2.162-2.726-4.415-5.376C30.662-186,23.2-193.369,15.686-200.68c-.924-.9-1.871-1.775-2.807-2.661l-.114.12c7.178,7.489,14.248,15.065,20.942,22.995q2.386,2.826,4.7,5.723c-.81-.549-1.628-1.084-2.433-1.611C33.9-177.473,31.8-178.793,29.633-180s-4.343-2.4-6.566-3.5c-2.286-1.133-4.729-2.056-6.935-3.339l-.08.145a51.6,51.6,0,0,1,6.506,3.6c2.17,1.287,4.335,2.583,6.466,3.933,2.095,1.329,4.2,2.64,6.282,3.992,1.734,1.127,3.442,2.357,5.239,3.4a168.669,168.669,0,0,1,11.421,16.623,122.572,122.572,0,0,1,5.9,11.2c-.428-.187-.857-.367-1.278-.555l-3.264-1.449c-2.1-.931-4.2-1.839-6.307-2.753-4-1.739-8.058-3.336-11.98-5.244a54.2,54.2,0,0,1-6.4-3.555l-.08.145c7.309,5.04,15.5,8.589,23.593,12.169l3.508,1.552c.963.427,1.929.9,2.922,1.276a124.832,124.832,0,0,1,6.029,16.52,336.373,336.373,0,0,1,7.756,34.487c2.045,11.644,3.425,23.365,4.5,35.136.133,1.469.266,2.936.432,4.4a.465.465,0,0,0,.929-.022c-.065-5.975-.678-11.961-1.3-17.9" fill="#17282f"/><path d="M55.238-168.189c-.654-3.624-1.619-7.168-2.6-10.715l-.159.048c.9,3.481,1.546,7.032,2.2,10.567q1,5.4,1.764,10.851l.1,0a95.784,95.784,0,0,0-1.311-10.748" fill="#17282f"/><path d="M39.874-158.36a64.4,64.4,0,0,0-7.753-4.364c-1.3-.671-2.615-1.309-3.932-1.947-1.356-.656-2.766-1.207-4.112-1.883l-.08.145c1.3.655,2.54,1.447,3.821,2.144,1.32.721,2.633,1.453,3.958,2.165,2.607,1.4,5.17,2.952,7.906,4.087a.2.2,0,0,0,.192-.348" fill="#17282f"/><path d="M115.021-152.529q-.009-2.334-.018-4.668l-.031-8.7c10.281-10.851,13.652-26.455,13.994-28.131-.254,2.165-3.448,26.787-13.334,41.229-.06.088-.12.176-.181.263l-.43.008" fill="#cfd3d1"/><path d="M82.734-132.289c2.718-14.218,14.073-20.53,25.824-28.212a35.035,35.035,0,0,0,5.072-4.049L113.6-157.2q-.014,3.546-.027,7.095c-11,13.073-30.844,17.813-30.844,17.813" fill="#cfd3d1"/><path d="M115.023-151.94c0-.188,0-.375,0-.561l.4.007c-.13.187-.263.372-.4.555" fill="#cfd3d1"/><path d="M113.578-150.1q.012-3.548.027-7.095l.026-7.353q.69-.66,1.341-1.348l.031,8.7q.009,2.334.018,4.668l-.717.013.717.015c0,.187,0,.373,0,.561q-.692.946-1.444,1.837" fill="#c0c3c1"/><path d="M115.42-152.494l-.4-.007-.717-.015.717-.013.43-.008-.03.043" fill="#c0c3c1"/><path d="M103.542-171.244a28.811,28.811,0,0,0-8.311,13.691l.07.024a33.651,33.651,0,0,1,8.351-13.591l-.11-.124" fill="#17282f"/><path d="M82.734-131.526s22.545-5.385,32.9-20.511c9.886-14.443,13.081-39.064,13.334-41.229l.026-.152s-10.81,15.371-22.176,19.289-27.34,17.48-24.081,42.6" fill="#fe5832"/><path d="M125-185.7a92.006,92.006,0,0,1-6.969,11.917,47.84,47.84,0,0,1-9.275,9.544c-3.062,2.432-6.3,4.636-9.4,7.02l.069-.112c.582-.864,1.2-1.7,1.846-2.523,1.291-1.649,2.7-3.207,4.121-4.747,2.8-3.039,5.662-6.02,8.173-9.312a34.378,34.378,0,0,0,3.615-5.823l-.157-.053c-3.656,7.62-10.96,12.495-16.172,18.931a33.435,33.435,0,0,0-2.084,2.849,11.743,11.743,0,0,0-1.3,2.292,47.267,47.267,0,0,0-7.691,7.775,31.176,31.176,0,0,1,.9-4.377,22.092,22.092,0,0,1,2.39-5.709l-.138-.092A26.923,26.923,0,0,0,90.3-152.45a19.856,19.856,0,0,0-.821,4.868l-.012.016a44.3,44.3,0,0,0-3.046,4.736c.094-.481.185-.964.28-1.444.447-2.247.943-4.488,1.526-6.7a40.164,40.164,0,0,1,5.423-12.7l-.139-.092a48.34,48.34,0,0,0-6.008,12.427c-.718,2.212-1.295,4.463-1.8,6.732-.247,1.108-.47,2.221-.683,3.339-.11.576-.235,1.167-.328,1.761a81.043,81.043,0,0,0-5.2,15.283,224.5,224.5,0,0,0-4.808,28.506,237.2,237.2,0,0,0-1.555,30.27c.02,1.268.1,2.533.166,3.8.019.327.506.373.522.03.221-5,.351-10.009.647-15.007s.731-9.995,1.267-14.98a266.137,266.137,0,0,1,4.7-29.146c1.828-8.244,4.2-16.54,8.7-23.761a44.7,44.7,0,0,1,8.134-9.673c3.161-2.837,6.618-5.324,9.949-7.952a54.536,54.536,0,0,0,9.13-8.776,71.8,71.8,0,0,0,7.171-11.637c.531-1.021,1.077-2.036,1.615-3.055L125-185.7" fill="#17282f"/><path d="M121.1-182.4a75.883,75.883,0,0,1-5.022,8.783l.1.069a61.12,61.12,0,0,0,5.076-8.8l-.157-.053" fill="#17282f"/><path d="M0-141.5s-.358,32.038,18.8,41.288c11.7,5.657,20.087,4.979,27.809,4.3,4.92-.432,9.57-.864,14.635.342l-.023-.017c-.5-.764-9.795-14.119-24.571-17.795C21.45-117.166,4.609-128.148,0-141.5" fill="#fe5832"/><path d="M38.726-95.465A43.852,43.852,0,0,1,18.8-100.209C.354-109.114,0-139.15,0-141.368v-.007c0-.081,0-.123,0-.123,4.285,30.164,27.362,38.036,39.442,39.489a72.479,72.479,0,0,1,21.78,6.425l.023.017a30.581,30.581,0,0,0-7.178-.787c-2.476,0-4.931.223-7.457.444s-5.122.443-7.884.443" fill="#cf593e"/><path d="M62.506-95.759a32.225,32.225,0,0,0-7.62-5.16c-.41-.2-.834-.357-1.251-.533-.2-.256-.417-.5-.643-.736-.574-.6-1.173-1.172-1.8-1.714a26.837,26.837,0,0,0-3.854-2.78c-3.174-1.866-6.652-3.171-9.9-4.905l-.08.146c1.6.832,3.157,1.751,4.718,2.663,1.518.885,3.07,1.731,4.547,2.684a32.7,32.7,0,0,1,3.791,2.843c.337.294.661.615.984.94a51.6,51.6,0,0,0-6.473-1.72c-3.507-.708-7.054-1.209-10.554-1.956a49.052,49.052,0,0,1-5.083-1.372c-1.59-1.28-3.177-2.552-4.682-3.94a38.4,38.4,0,0,1-4.952-5.491l-.141.088a58.534,58.534,0,0,0,7.854,8.666c-.826-.313-1.643-.649-2.45-1.016a39.522,39.522,0,0,1-16.324-13.58l-.141.086a44.789,44.789,0,0,0,13.206,12.677A39.608,39.608,0,0,0,30-105.919a77.307,77.307,0,0,0,10.369,2.451,73.35,73.35,0,0,1,10.153,2.416,30.667,30.667,0,0,1,8.515,4.479A39.838,39.838,0,0,1,70.519-82.338c3.625,7.275,5.359,15.405,6.321,23.426.042.343.571.343.547-.013-.9-13.467-4.5-27.481-14.881-36.833" fill="#17282f"/><path d="M40.275-106.207a11.028,11.028,0,0,0-3.939-3.569,14.453,14.453,0,0,1-4.684-3.876l-.141.087a15.844,15.844,0,0,0,4.136,3.706,14.417,14.417,0,0,1,4.507,3.728l.12-.075" fill="#17282f"/><path d="M50.438-72.112l.872,17.619L53.982-.665H94.17l2.672-53.828.872-17.619H50.438" fill="#33535f"/><path d="M50.438-72.112l.872,17.619H96.842l.872-17.619H50.438" fill="#17282f"/><path d="M47.621-62.659h52.91V-79.465H47.621v16.806" fill="#33535f"/><path d="M0-.665,67.519-.99l67.519-.118,135.037-.223,135.038.221,67.52.117,67.518.327L472.633-.34l-67.52.117L270.075,0,135.038-.224,67.519-.341,0-.665" fill="#17282f"/><path d="M500.555-213.139H39.6V-530.62H500.555v317.481" fill="#fff"/><path d="M500.555-213.139c.037.069-.327-318.081,0-317.345l-460.956.2.332-.332c-.049-.1.149,318.374-.331,317.278Zm0,0-461.16.2c-.164,0-.013-317.618-.13-317.685v-.332H39.6l461.094.2-.136,317.617" fill="#17282f"/><path d="M500.555-518.4H39.6V-530.62H500.555V-518.4" fill="#17282f"/><path d="M51.379-524.512a2.461,2.461,0,0,1-2.461,2.461,2.461,2.461,0,0,1-2.461-2.461,2.461,2.461,0,0,1,2.461-2.46,2.461,2.461,0,0,1,2.461,2.46" fill="#fabb1e"/><path d="M61.428-524.512a2.461,2.461,0,0,1-2.461,2.461,2.461,2.461,0,0,1-2.461-2.461,2.46,2.46,0,0,1,2.461-2.46,2.461,2.461,0,0,1,2.461,2.46" fill="#fff"/><path d="M71.477-524.512a2.461,2.461,0,0,1-2.461,2.461,2.461,2.461,0,0,1-2.461-2.461,2.46,2.46,0,0,1,2.461-2.46,2.461,2.461,0,0,1,2.461,2.46" fill="#33535f"/><path d="M97.266-489.384H87.328v-1.6h9.937v1.6" fill="#e7e8e5"/><path d="M97.266-482.224H87.328v-1.6h9.937v1.6" fill="#e7e8e5"/><path d="M97.266-485.763H87.328v-1.6h9.937v1.6" fill="#e7e8e5"/><path d="M175.092-484.833H122.246v-3.539h52.846v3.539" fill="#e7e8e5"/><path d="M247.567-484.833H194.721v-3.539h52.847v3.539" fill="#fe5832"/><path d="M320.042-484.833H267.2v-3.539h52.847v3.539" fill="#e7e8e5"/><path d="M452.695-480.427H342.35v-12.352H452.695v12.352" fill="#fff"/><path d="M452.82-480.3c0,.045-.12-12.851,0-12.549-13.8.08-41.509.165-55.3.176l-55.3.1.332-.332-.02,12.6c-1.941-.868,110.705.281,110.285,0Zm0,0c-.327-.309-111.232.911-110.908,0l-.02-12.605v-.332l83.28.153,27.7.125L452.82-480.3" fill="#bebfbd"/><path d="M450.435-483.14l-1.141.865-2.115-2.792-.773-1.02a1.8,1.8,0,0,0,.444-.252,1.842,1.842,0,0,0,.585-.759l.821,1.083,2.179,2.875" fill="#d4d6d3"/><path d="M446.85-486.339a1.8,1.8,0,0,1-.444.252,1.858,1.858,0,0,1-2.167-.595,1.864,1.864,0,0,1,.344-2.612,1.864,1.864,0,0,1,2.612.345,1.865,1.865,0,0,1,.24,1.851,1.842,1.842,0,0,1-.585.759Zm1.339-3.372a3.114,3.114,0,0,0-4.367-.576,3.115,3.115,0,0,0-.576,4.367,3.112,3.112,0,0,0,3.933.853,3.165,3.165,0,0,0,.432-.277,3.129,3.129,0,0,0,.645-.671,3.114,3.114,0,0,0-.068-3.7" fill="#d4d6d3"/><path d="M345.6-482.855h-.663v-7.5h.663v7.5" fill="#bebfbd"/><path d="M500.555-213.139h-8.916V-518.4h8.916v305.265" fill="#d4d6d3"/><path d="M496.1-412.052h0a2.3,2.3,0,0,1-2.3-2.3v-99.609a2.3,2.3,0,0,1,2.3-2.3h0a2.3,2.3,0,0,1,2.3,2.3v99.609a2.3,2.3,0,0,1-2.3,2.3" fill="#999b9b"/><path d="M452.824-431.34H363.316V-459.69h89.508v28.349" fill="#fe5832"/><path d="M375.959-443.4H373.6a.911.911,0,0,1-.912-.913.92.92,0,0,1,.912-.912h2.355v-2.3a.935.935,0,0,1,.945-.947.944.944,0,0,1,.945.947v2.3H380.2a.922.922,0,0,1,.914.912.912.912,0,0,1-.914.913h-2.355v2.3a.944.944,0,0,1-.945.945.934.934,0,0,1-.945-.945v-2.3" transform="translate(15.197 -0.98)" fill="#fff"/><path d="M391.064-443.211l-1.343-3.565-1.343,3.565Zm.679,1.825h-4.03l-.813,2.156a.932.932,0,0,1-.862.581l-.317-.051a.939.939,0,0,1-.547-1.195l3.666-9.768a.926.926,0,0,1,.88-.581.909.909,0,0,1,.878.581l3.666,9.768a.941.941,0,0,1-.548,1.195l-.313.051a.9.9,0,0,1-.847-.581l-.813-2.156" transform="translate(17.984 -1.376)" fill="#fff"/><path d="M397.537-445.132a2.146,2.146,0,0,0-1.559.681,2.356,2.356,0,0,0-.664,1.675,2.339,2.339,0,0,0,.664,1.644,2.144,2.144,0,0,0,1.559.679,2.12,2.12,0,0,0,1.559-.679,2.339,2.339,0,0,0,.664-1.644,2.356,2.356,0,0,0-.664-1.675A2.121,2.121,0,0,0,397.537-445.132Zm4.03,5.591a.9.9,0,0,1-.894.9.893.893,0,0,1-.88-.713,4.049,4.049,0,0,1-2.256.713,4.1,4.1,0,0,1-4.03-4.131,4.107,4.107,0,0,1,4.03-4.162,3.93,3.93,0,0,1,2.223.7v-3.119a.908.908,0,0,1,.913-.9.9.9,0,0,1,.895.9v9.82" transform="translate(19.865 -1.379)" fill="#fff"/><path d="M406.476-445.132a2.148,2.148,0,0,0-1.559.681,2.356,2.356,0,0,0-.664,1.675,2.339,2.339,0,0,0,.664,1.644,2.147,2.147,0,0,0,1.559.679,2.126,2.126,0,0,0,1.56-.679,2.345,2.345,0,0,0,.663-1.644,2.362,2.362,0,0,0-.663-1.675A2.127,2.127,0,0,0,406.476-445.132Zm4.032,5.591a.9.9,0,0,1-.9.9.9.9,0,0,1-.88-.713,4.045,4.045,0,0,1-2.256.713,4.1,4.1,0,0,1-4.03-4.131,4.108,4.108,0,0,1,4.03-4.162,3.926,3.926,0,0,1,2.223.7v-3.119a.908.908,0,0,1,.913-.9.9.9,0,0,1,.9.9v9.82" transform="translate(21.869 -1.379)" fill="#fff"/><path d="M96.023-449.728h-2.6V-441a.887.887,0,0,1-.9.9.9.9,0,0,1-.9-.9v-8.727H89.044a.911.911,0,0,1-.9-.916.887.887,0,0,1,.9-.9h6.979a.9.9,0,0,1,.9.9.922.922,0,0,1-.9.916" fill="#17282f"/><path d="M103.235-444.6l-1.323-3.515-1.324,3.515Zm.67,1.8H99.934l-.8,2.124a.917.917,0,0,1-.849.573l-.311-.049a.928.928,0,0,1-.539-1.177l3.612-9.627a.912.912,0,0,1,.866-.571.9.9,0,0,1,.866.571l3.613,9.627a.928.928,0,0,1-.54,1.177l-.31.049a.879.879,0,0,1-.834-.573l-.8-2.124" fill="#17282f"/><path d="M108-442.946a.851.851,0,0,1,1.193-.115,5.336,5.336,0,0,0,3.122,1.259,3.528,3.528,0,0,0,2.043-.6,1.476,1.476,0,0,0,.7-1.177.929.929,0,0,0-.147-.523,1.519,1.519,0,0,0-.49-.491,6.545,6.545,0,0,0-2.239-.768h-.032a8.935,8.935,0,0,1-2.109-.637,3.512,3.512,0,0,1-1.52-1.276,2.507,2.507,0,0,1-.376-1.34A3.019,3.019,0,0,1,109.451-451a4.83,4.83,0,0,1,2.828-.867,6.4,6.4,0,0,1,3.563,1.308.84.84,0,0,1,.229,1.16.826.826,0,0,1-1.16.245,4.738,4.738,0,0,0-2.631-1.047,3.128,3.128,0,0,0-1.831.556,1.3,1.3,0,0,0-.621,1.029.8.8,0,0,0,.115.459,1.573,1.573,0,0,0,.441.424,5.613,5.613,0,0,0,2.043.719h.033a9.7,9.7,0,0,1,2.255.688,3.809,3.809,0,0,1,1.634,1.356,2.648,2.648,0,0,1,.392,1.389,3.16,3.16,0,0,1-1.405,2.532,5.105,5.105,0,0,1-3.023.932,7.039,7.039,0,0,1-4.184-1.635.868.868,0,0,1-.131-1.192" fill="#17282f"/><path d="M119.263-441v-9.56a.906.906,0,0,1,.9-.9.906.906,0,0,1,.9.9v4.689l5.3-5.311a.886.886,0,0,1,1.274,0,.917.917,0,0,1,0,1.275l-3.595,3.58,3.628,4.755a.875.875,0,0,1-.131,1.259.833.833,0,0,1-.572.213.884.884,0,0,1-.67-.328l-3.53-4.624-1.7,1.732V-441a.9.9,0,0,1-.9.9.9.9,0,0,1-.9-.9" fill="#17282f"/><path d="M130.432-442.946a.851.851,0,0,1,1.193-.115,5.336,5.336,0,0,0,3.122,1.259,3.525,3.525,0,0,0,2.043-.6,1.474,1.474,0,0,0,.7-1.177.934.934,0,0,0-.147-.523,1.521,1.521,0,0,0-.491-.491,6.539,6.539,0,0,0-2.239-.768h-.032a8.938,8.938,0,0,1-2.109-.637,3.511,3.511,0,0,1-1.52-1.276,2.506,2.506,0,0,1-.376-1.34A3.02,3.02,0,0,1,131.886-451a4.834,4.834,0,0,1,2.828-.867,6.4,6.4,0,0,1,3.563,1.308.841.841,0,0,1,.228,1.16.825.825,0,0,1-1.16.245,4.74,4.74,0,0,0-2.631-1.047,3.126,3.126,0,0,0-1.831.556,1.3,1.3,0,0,0-.621,1.029.8.8,0,0,0,.115.459,1.567,1.567,0,0,0,.441.424,5.608,5.608,0,0,0,2.043.719h.033a9.709,9.709,0,0,1,2.255.688,3.817,3.817,0,0,1,1.635,1.356,2.648,2.648,0,0,1,.392,1.389,3.16,3.16,0,0,1-1.405,2.532,5.106,5.106,0,0,1-3.024.932,7.04,7.04,0,0,1-4.184-1.635.868.868,0,0,1-.131-1.192" fill="#17282f"/><path d="M452.824-382.134l-.029-33.823c.163.081-365.5.3-365.466.332l.332-.332-.028,33.823c-2.111-.84,365.756.269,365.191,0Zm0,0c-.307-.305-366.127.889-365.8,0L87-415.956v-.333c.336.029,365.552.249,365.856.333l-.028,33.823" fill="#bebfbd"/><path d="M105.8-403.124c41.8-.649,88.706-.656,130.507,0-41.8.657-88.705.651-130.507,0" fill="#bebfbd"/><path d="M105.8-394.967c27.186-.656,57.1-.661,84.286,0-27.187.661-57.1.656-84.286,0" fill="#bebfbd"/><path d="M360.53-393.871H285.609V-404.22H360.53v10.349" fill="#e7e8e5"/><path d="M357.826-396.224H287.818v-5.755h70.008v5.755" fill="#fe5832"/><path d="M432.377-396.224H397.764v-10.092h34.612v10.092" transform="translate(0 4.337)" fill="#fabb1e"/><path d="M407.862-402.267a3.028,3.028,0,0,1,1.847.629l.033.287-.277.04a2.614,2.614,0,0,0-1.6-.556,2.536,2.536,0,0,0-2.573,2.517,2.529,2.529,0,0,0,2.573,2.484,2.436,2.436,0,0,0,1.587-.556l.285.049-.025.287a3.022,3.022,0,0,1-1.847.621,2.932,2.932,0,0,1-2.975-2.885,2.944,2.944,0,0,1,2.975-2.917" fill="#fff"/><path d="M414.3-398.892a1.2,1.2,0,0,0-1.275-1.176,1.2,1.2,0,0,0-1.268,1.176v2.256l-.008.032-.015.033-.124.1-.016.008h-.041l-.155-.065-.033-.065-.008-.067v-5.327l.2-.2.2.2v2.108a1.655,1.655,0,0,1,1.268-.589,1.6,1.6,0,0,1,1.675,1.577v2.231l-.2.2-.2-.2v-2.231" fill="#fff"/><path d="M416.5-398.778h3.032a1.548,1.548,0,0,0-1.5-1.3A1.562,1.562,0,0,0,416.5-398.778Zm-.417.319a1.976,1.976,0,0,1,1.945-2.011,1.965,1.965,0,0,1,1.929,1.864v.032l-.2.18h-3.284a1.574,1.574,0,0,0,1.552,1.536,1.5,1.5,0,0,0,1.291-.727l.261-.065.065.277a1.906,1.906,0,0,1-1.617.908,1.972,1.972,0,0,1-1.945-1.995" fill="#fff"/><path d="M421.06-398.475a2.018,2.018,0,0,1,2.06-1.995,2.066,2.066,0,0,1,1.275.441l.024.271-.271.032a1.645,1.645,0,0,0-1.028-.36,1.638,1.638,0,0,0-1.668,1.611,1.633,1.633,0,0,0,1.668,1.617,1.686,1.686,0,0,0,1.028-.351l.271.033-.041.285a2.065,2.065,0,0,1-1.257.425,2.021,2.021,0,0,1-2.06-2.011" fill="#fff"/><path d="M426.015-401.988l.195-.2.205.2v3.848l2.371-2.361h.277v.279l-1.544,1.544,1.552,1.888-.017.285-.129.041-.156-.075-1.536-1.855-.817.817v.915l-.205.2-.195-.2v-5.327" fill="#fff"/><path d="M452.824-334.982l-.029-33.824c.163.083-365.5.3-365.466.332l.332-.332-.028,33.824c-2.111-.84,365.756.269,365.191,0Zm0,0c-.307-.305-366.127.889-365.8,0L87-368.806v-.332c.336.028,365.552.249,365.856.332l-.028,33.824" fill="#bebfbd"/><path d="M105.8-355.972c41.8-.651,88.706-.656,130.507,0-41.8.656-88.705.651-130.507,0" fill="#bebfbd"/><path d="M105.8-347.815c27.186-.657,57.1-.663,84.286,0-27.187.661-57.1.656-84.286,0" fill="#bebfbd"/><path d="M360.53-346.719H285.609v-10.349H360.53v10.349" fill="#e7e8e5"/><path d="M336.569-349.073H287.818v-5.756h48.751v5.756" fill="#fe5832"/><path d="M436.363-344.736h-38.6v-14.428h38.6v14.428" fill="#fe5832"/><path d="M407.862-355.115a3.028,3.028,0,0,1,1.847.629l.033.285-.277.041a2.606,2.606,0,0,0-1.6-.556,2.536,2.536,0,0,0-2.573,2.517,2.529,2.529,0,0,0,2.573,2.484,2.436,2.436,0,0,0,1.587-.556l.285.049-.025.287a3.021,3.021,0,0,1-1.847.62,2.931,2.931,0,0,1-2.975-2.884,2.943,2.943,0,0,1,2.975-2.917" fill="#fff"/><path d="M414.3-351.74a1.2,1.2,0,0,0-1.275-1.176,1.2,1.2,0,0,0-1.268,1.176v2.256l-.008.032-.015.032-.124.1-.016.008h-.041l-.155-.065-.033-.064-.008-.067v-5.328l.2-.2.2.2v2.108a1.658,1.658,0,0,1,1.268-.588,1.6,1.6,0,0,1,1.675,1.577v2.231l-.2.2-.2-.2v-2.231" fill="#fff"/><path d="M416.5-351.626h3.032a1.547,1.547,0,0,0-1.5-1.3A1.562,1.562,0,0,0,416.5-351.626Zm-.417.319a1.975,1.975,0,0,1,1.945-2.011,1.965,1.965,0,0,1,1.929,1.863v.033l-.2.18h-3.284a1.574,1.574,0,0,0,1.552,1.536,1.5,1.5,0,0,0,1.291-.728l.261-.064.065.277a1.9,1.9,0,0,1-1.617.907,1.971,1.971,0,0,1-1.945-1.993" fill="#fff"/><path d="M421.06-351.323a2.018,2.018,0,0,1,2.06-1.995,2.066,2.066,0,0,1,1.275.441l.024.271-.271.032a1.637,1.637,0,0,0-1.028-.36,1.638,1.638,0,0,0-1.668,1.611,1.633,1.633,0,0,0,1.668,1.617,1.678,1.678,0,0,0,1.028-.352l.271.033-.041.285a2.056,2.056,0,0,1-1.257.425,2.02,2.02,0,0,1-2.06-2.009" fill="#fff"/><path d="M426.015-354.838l.195-.2.205.2v3.849l2.371-2.361h.277v.277l-1.544,1.545,1.552,1.887-.017.287-.129.04-.156-.073-1.536-1.855-.817.817v.915l-.205.2-.195-.2v-5.328" fill="#fff"/><path d="M452.824-287.831l-.029-33.823c.163.083-365.5.3-365.466.332l.332-.332-.028,33.823c-2.111-.839,365.756.271,365.191,0Zm0,0c-.307-.3-366.126.891-365.8,0L87-321.654v-.332c.336.028,365.552.249,365.856.332l-.028,33.823" fill="#bebfbd"/><path d="M105.8-308.821c41.8-.651,88.706-.656,130.507,0-41.8.656-88.705.651-130.507,0" fill="#bebfbd"/><path d="M105.8-300.665c27.186-.656,57.1-.661,84.286,0-27.187.663-57.1.657-84.286,0" fill="#bebfbd"/><path d="M360.53-299.567H285.609v-10.349H360.53v10.349" fill="#e7e8e5"/><path d="M297.169-301.922h-9.351v-5.755h9.351v5.755" fill="#fe5832"/><path d="M436.363-297.585h-38.6v-14.429h38.6v14.429" fill="#fe5832"/><path d="M407.862-307.965a3.029,3.029,0,0,1,1.847.631l.033.285-.277.041a2.606,2.606,0,0,0-1.6-.556,2.536,2.536,0,0,0-2.573,2.517,2.53,2.53,0,0,0,2.573,2.484,2.443,2.443,0,0,0,1.587-.556l.285.049-.025.285a3.022,3.022,0,0,1-1.847.621,2.931,2.931,0,0,1-2.975-2.884,2.945,2.945,0,0,1,2.975-2.919" fill="#fff"/><path d="M414.3-304.589a1.2,1.2,0,0,0-1.275-1.177,1.2,1.2,0,0,0-1.268,1.177v2.255l-.008.033-.015.032-.124.1-.016.008h-.041l-.155-.065-.033-.065-.008-.065v-5.328l.2-.2.2.2v2.108a1.658,1.658,0,0,1,1.268-.588,1.6,1.6,0,0,1,1.675,1.577v2.231l-.2.2-.2-.2v-2.231" fill="#fff"/><path d="M416.5-304.475h3.032a1.548,1.548,0,0,0-1.5-1.3A1.564,1.564,0,0,0,416.5-304.475Zm-.417.319a1.975,1.975,0,0,1,1.945-2.009,1.965,1.965,0,0,1,1.929,1.863v.033l-.2.18h-3.284a1.574,1.574,0,0,0,1.552,1.536,1.5,1.5,0,0,0,1.291-.728l.261-.065.065.279a1.9,1.9,0,0,1-1.617.907,1.971,1.971,0,0,1-1.945-1.995" fill="#fff"/><path d="M421.06-304.173a2.017,2.017,0,0,1,2.06-1.993,2.066,2.066,0,0,1,1.275.441l.024.269-.271.033a1.637,1.637,0,0,0-1.028-.36,1.637,1.637,0,0,0-1.668,1.609,1.633,1.633,0,0,0,1.668,1.619,1.678,1.678,0,0,0,1.028-.352l.271.033-.041.285a2.065,2.065,0,0,1-1.257.425,2.021,2.021,0,0,1-2.06-2.011" fill="#fff"/><path d="M426.015-307.686l.195-.2.205.2v3.848l2.371-2.361h.277v.279l-1.544,1.544,1.552,1.888-.017.287-.129.04-.156-.073-1.536-1.855-.817.817v.915l-.205.2-.195-.2v-5.328" fill="#fff"/><path d="M452.824-240.679l-.029-33.823c.163.083-365.5.3-365.466.332l.332-.332-.028,33.823c-2.111-.84,365.756.269,365.191,0Zm0,0c-.307-.305-366.127.889-365.8,0L87-274.5v-.333c.336.029,365.552.249,365.856.333l-.028,33.823" fill="#bebfbd"/><path d="M105.8-261.669c41.8-.651,88.706-.656,130.507,0-41.8.656-88.705.651-130.507,0" fill="#bebfbd"/><path d="M105.8-253.513c27.186-.656,57.1-.661,84.286,0-27.187.663-57.1.656-84.286,0" fill="#bebfbd"/><path d="M360.53-252.415H285.609v-10.351H360.53v10.351" fill="#e7e8e5"/><path d="M302.1-254.77H287.818v-5.755H302.1v5.755" fill="#fabb1e"/><path d="M436.363-250.433h-38.6v-14.429h38.6v14.429" fill="#fe5832"/><path d="M407.862-260.813a3.028,3.028,0,0,1,1.847.629l.033.287-.277.04a2.613,2.613,0,0,0-1.6-.555,2.536,2.536,0,0,0-2.573,2.516,2.529,2.529,0,0,0,2.573,2.484,2.442,2.442,0,0,0,1.587-.555l.285.049-.025.285a3.022,3.022,0,0,1-1.847.621,2.931,2.931,0,0,1-2.975-2.885,2.944,2.944,0,0,1,2.975-2.917" fill="#fff"/><path d="M414.3-257.438a1.2,1.2,0,0,0-1.275-1.176,1.2,1.2,0,0,0-1.268,1.176v2.256l-.008.033-.015.032-.124.1-.016.008h-.041l-.155-.065-.033-.065-.008-.065v-5.328l.2-.2.2.2v2.108a1.654,1.654,0,0,1,1.268-.588,1.6,1.6,0,0,1,1.675,1.576v2.232l-.2.2-.2-.2v-2.232" fill="#fff"/><path d="M416.5-257.323h3.032a1.548,1.548,0,0,0-1.5-1.3A1.562,1.562,0,0,0,416.5-257.323Zm-.417.319a1.975,1.975,0,0,1,1.945-2.009,1.964,1.964,0,0,1,1.929,1.863v.032l-.2.181h-3.284a1.574,1.574,0,0,0,1.552,1.535,1.5,1.5,0,0,0,1.291-.727l.261-.065.065.279a1.907,1.907,0,0,1-1.617.907A1.971,1.971,0,0,1,416.08-257" fill="#fff"/><path d="M421.06-257.021a2.017,2.017,0,0,1,2.06-1.993,2.065,2.065,0,0,1,1.275.44l.024.271-.271.033a1.637,1.637,0,0,0-1.028-.36,1.637,1.637,0,0,0-1.668,1.609,1.633,1.633,0,0,0,1.668,1.617,1.677,1.677,0,0,0,1.028-.351l.271.033-.041.285a2.065,2.065,0,0,1-1.257.425,2.021,2.021,0,0,1-2.06-2.011" fill="#fff"/><path d="M426.015-260.534l.195-.2.205.2v3.848l2.371-2.361h.277v.279l-1.544,1.544,1.552,1.888-.017.285-.129.041-.156-.075-1.536-1.853-.817.816v.916l-.205.2-.195-.2v-5.328" fill="#fff"/><path d="M538.463-93.9l-.141,61.044c-.347,11.267-.852,21.139-1.591,26.221l-.013.082c-.276,1.918-.584,3.139-.939,3.454l-.068.07c-3.424,2.168-93.544,2.018-96.684.955s-.359-10.1,3.144-12.884c3.529-2.784,38.045-18.158,38.045-18.158l.7-60.957,57.548.175" fill="#be5253"/><path d="M538.757-44.949l-.436,12.093c-.347,11.267-.852,21.139-1.591,26.221l-.013.082a15.309,15.309,0,0,1-.939,3.454l-.068.07c-3.424,2.168-93.544,2.018-96.684.955s-.359-10.1,3.144-12.884c3.529-2.784,38.045-18.158,38.045-18.158l.275-12.279,58.267.446" fill="#fff"/><path d="M474.7-33.237c6.024-.821,13.283.452,17.636,4.93.168.173-.08.411-.271.34a83.954,83.954,0,0,0-17.379-4.513.383.383,0,0,1,.013-.756" fill="#17282f"/><path d="M470.26-30.85c6.025-.823,13.283.452,17.636,4.929.169.172-.08.41-.269.34a84.046,84.046,0,0,0-17.38-4.515.382.382,0,0,1,.013-.755" fill="#17282f"/><path d="M465.824-28.465c6.024-.821,13.283.451,17.636,4.929.168.173-.08.411-.271.34a84.111,84.111,0,0,0-17.379-4.513.382.382,0,0,1,.013-.756" fill="#17282f"/><path d="M439.026-2.073c3.145,1.067,93.257,1.217,96.689-.957,1.319-.8,2.107-13.933,2.6-29.825,0-.165.008-.332.011-.5L480.192-34.1l.02.986s-34.517,15.371-38.041,18.16c-3.5,2.779-6.293,11.828-3.145,12.88" fill="#273e47"/><path d="M538.336-33.361l-.015.515c-.507,15.883-1.281,29.015-2.607,29.818-1.553.986-21.1,1.492-42.215,1.664-25.265.194-52.764-.12-54.48-.7-3.143-1.065-.337-10.11,3.152-12.895,3.524-2.784,38.04-18.156,38.04-18.156l-.024-.979,19.388.244,38.76.488" fill="#fe5832"/><path d="M440.051-5.566c15.191-.348,76.493-.316,91.536.495.123.007.123.091,0,.1-15.049.673-76.35.145-91.537-.342-.32-.01-.32-.241,0-.249" fill="#17282f"/><path d="M478.263-1.308c-20.016,0-37.871-.294-39.243-.756-.96-.326-1.365-1.4-1.365-2.807,0-3.2,2.095-8.155,4.517-10.088,3.524-2.784,38.04-18.156,38.04-18.156h0l-.024-.979,19.388.244C498.148-25.662,496.1-14.2,494.4-5.714c-7.284-.041-14.828-.061-21.967-.061-14.084,0-26.589.077-32.383.209-.321.008-.321.239,0,.249,8.7.279,32.536.571,54.14.643-.239,1.175-.469,2.283-.689,3.308h0c-5.064.039-10.219.058-15.237.058" fill="#cf593e"/><path d="M494.189-4.673c-21.6-.072-45.439-.364-54.14-.643-.32-.01-.32-.241,0-.249,5.793-.132,18.3-.209,32.383-.209,7.139,0,14.683.02,21.967.061-.071.354-.141.7-.211,1.04" fill="#142228"/><path d="M543.412-32.073l-65.183-1.183s-.512-112.479.184-147.87c.795-40.423,6.435-161.594,6.435-161.594l48.72,1.347s9.691,28.365,8.689,45.821c-.291,5.055-3.677,12.381-5.172,17.756l-7.8,100.2L543.412-32.073" fill="#273e47"/><path d="M538.9-43.619a47.983,47.983,0,0,0-5.179-.557c-1.921-.19-3.837-.387-5.764-.521-3.7-.259-7.409-.426-11.119-.543-7.481-.236-14.967-.384-22.452-.357-4.26.016-8.517.067-12.775.192a.135.135,0,0,0,0,.269c7.411.473,14.828.795,22.245,1.144s14.832.7,22.243.76c2.128.018,4.256.058,6.384-.005,2.1-.063,4.3.116,6.384-.132.124-.015.181-.219.033-.249" fill="#17282f"/><path d="M485.011-105.814c-.275-17.564-.236-39.321-.231-56.888q.01-52.7,2.149-105.374c.793-19.7,1.864-39.383,3-59.062.013-.225-.331-.221-.348,0-2.84,35.208-4.527,70.517-5.541,105.822-1.011,35.124-1.363,74.457-.6,109.588.429,19.718.945,41.544,2.257,61.224.011.17.271.175.268,0-.3-17.74-.677-37.568-.953-55.309" fill="#17282f"/><path d="M468.6-92.113l-2.127,58.947c-.347,11.267-.852,21.138-1.591,26.221l-.013.081c-.276,1.919-.584,3.139-.939,3.455l-.068.069c-3.423,2.168-93.544,2.019-96.684.955s-.357-10.1,3.144-12.884c3.529-2.785,38.045-18.159,38.045-18.159l2.684-58.86,57.548.174" fill="#be5253"/><path d="M466.91-45.26l-.436,12.093c-.347,11.267-.852,21.138-1.591,26.221l-.013.081a15.239,15.239,0,0,1-.939,3.455l-.068.069c-3.423,2.168-93.544,2.019-96.684.955s-.357-10.1,3.144-12.884c3.529-2.785,38.045-18.159,38.045-18.159l.275-12.28,58.267.448" fill="#fff"/><path d="M402.85-33.548c6.025-.821,13.283.452,17.636,4.929.169.173-.08.411-.271.34a84.056,84.056,0,0,0-17.379-4.513.382.382,0,0,1,.013-.756" fill="#17282f"/><path d="M398.414-31.161c6.024-.822,13.281.452,17.636,4.929.169.173-.081.409-.271.34A84.089,84.089,0,0,0,398.4-30.407a.382.382,0,0,1,.013-.755" fill="#17282f"/><path d="M393.976-28.776c6.025-.821,13.283.453,17.636,4.931.169.172-.08.409-.271.339a84.121,84.121,0,0,0-17.379-4.513.383.383,0,0,1,.013-.756" fill="#17282f"/><path d="M367.178-2.384c3.145,1.067,93.257,1.217,96.689-.957,1.319-.8,2.107-13.933,2.6-29.825,0-.165.007-.332.011-.5l-58.136-.747.021.987s-34.519,15.371-38.043,18.16c-3.5,2.779-6.293,11.828-3.145,12.88" fill="#fe5832"/><path d="M368.2-5.876c15.191-.347,76.493-.316,91.536.495.123.007.123.091,0,.1-15.049.673-76.349.145-91.537-.341-.32-.011-.32-.242,0-.249" fill="#17282f"/><path d="M503.579-279.787c-.015.04-29.06,83.522-29.971,99-.777,13.191-2.831,148.718-2.831,148.718l-63.684-1.468s10.113-139.984,11.551-153.714c2.263-21.627,13.96-70.766,29.428-123.858,2.895-9.935,12.292-32.283,12.292-32.283l71.692,1.98s-1.545,32.935-17.191,56.352c0,0-6.872,2.953-11.287,5.277" fill="#273e47"/><path d="M467.539-44.295c-7.135-.381-14.535-.773-21.681-.812-7.087-.039-14.192-.137-21.276.044-4.019.1-8.025.112-12.039.356a.1.1,0,1,0,0,.192c7.127.569,14.293.693,21.439.832,7.093.139,14.181.266,21.276.171,4.016-.054,8.024-.124,12.039-.263.433-.015.676-.5.244-.52" fill="#17282f"/><path d="M459.872-303.681c-2.635,7.984-4.895,16.1-7.279,24.163q-3.6,12.19-7.18,24.391c-4.611,15.735-11.668,42.137-15.24,58.148-3.6,16.111-13.836,143.065-13.816,145.164a.157.157,0,0,0,.313,0c1.973-14.748,12.992-138.257,14.591-144.009,4.392-15.8,8.98-37.856,13.544-53.6q3.9-13.472,7.827-26.94c2.615-9.043,5.392-18.06,7.723-27.181a.251.251,0,0,0-.483-.135" fill="#17282f"/><path d="M486.616-284.743a60.434,60.434,0,0,0,10.039,1.064,99.131,99.131,0,0,0,10.08-.753c3.211-.292,6.463.209,9.672.327a33.5,33.5,0,0,0,9.725-.912c.149-.04.223.187.073.229a58.175,58.175,0,0,1-9.557,2.068c-3.345.368-6.664-.148-10.015,0a81.705,81.705,0,0,1-10.281.311,36.234,36.234,0,0,1-9.815-2.121c-.125-.047-.043-.233.079-.212" fill="#17282f"/><path d="M480.815-212c.755-2.571,1.471-5.151,2.265-7.712,1.605-5.179,3.235-10.36,5-15.489,3.509-10.2,6.84-20.46,10.535-30.593,2.095-5.747,3.991-11.575,6.419-17.2a.121.121,0,0,1,.229.073c-1.288,5.272-3.047,10.416-4.637,15.607s-3.281,10.344-4.975,15.5c-3.367,10.243-6.669,20.509-10.316,30.663-1.024,2.847-2.072,5.684-3.171,8.5-1.123,2.88-2.024,5.861-3.353,8.661a.134.134,0,0,1-.255-.081c.555-2.688,1.485-5.3,2.259-7.932" fill="#17282f"/><path d="M501.889-298.427c.469-4.431,1.949-18.423,2.193-20.991.123-1.284.651-8.72.148-8.791a65.9,65.9,0,0,0-8.02-.141q-3.926-.066-7.851-.28c-5.292-.289-10.577-.805-15.836-1.505a.56.56,0,1,0-.144,1.108q7.968,1.168,16,1.735c2.609.187,12.711.708,15.056.449-.049,1.06-.7,4.951-.813,5.829a32.939,32.939,0,0,0-3.341.219q-1.86.12-3.727.167c-2.576.065-5.161.037-7.741-.084a118.989,118.989,0,0,1-14.881-1.6c-.157-.028-.18.185-.028.22a87.285,87.285,0,0,0,15.191,2.1q3.6.162,7.2.043,1.956-.066,3.907-.209a23.092,23.092,0,0,0,3.356-.348c-.021.172-.044.344-.065.515-.307,2.443-1.927,16.828-2.487,21.571-2.649,1.221-15.639,7.189-17.163,6.361-2.895-1.571-12.835-8.219-15.736-9.855q.606-6.39,1.679-12.724.558-3.252,1.237-6.484a41.858,41.858,0,0,0,1.221-6.64c.007-.185-.275-.341-.407-.159l-.195.268v.144a29.868,29.868,0,0,0-1.872,5.867q-.836,3.294-1.507,6.623-1.346,6.652-2.072,13.4a.832.832,0,0,0,.365.785c4.364,2.555,16.345,10.273,17.444,10.473,2.111.384,17.951-6.479,18.365-6.763.5-.345.467-.757.525-1.311" fill="#17282f"/><path d="M520.309-301.819c-.357-3.812-1.481-15.849-1.672-18.059-.1-1.1-.545-7.484-.26-7.513a25.344,25.344,0,0,1,4.572.38q2.24.188,4.475.251a77.083,77.083,0,0,0,9.005-.3c.448-.04.551.905.1.955a81.111,81.111,0,0,1-9.093.483,66.477,66.477,0,0,1-8.581-.557c.049.908.5,4.271.58,5.028a13.472,13.472,0,0,1,1.911.395q1.064.218,2.129.375a41.262,41.262,0,0,0,4.416.413,44.456,44.456,0,0,0,8.459-.433l.021.188a32.448,32.448,0,0,1-8.627.845,35.431,35.431,0,0,1-4.107-.413q-1.118-.18-2.233-.423a9.623,9.623,0,0,1-1.921-.507l.048.444c.224,2.1,1.436,14.487,1.849,18.571,1.536,1.208,9.067,7.115,9.92,6.5,1.62-1.161,7.159-6.216,8.781-7.432q-.474-5.494-1.213-10.968-.382-2.812-.835-5.613a54.3,54.3,0,0,1-.829-5.744c-.008-.16.149-.275.228-.111l.117.24,0,.124a38.245,38.245,0,0,1,1.185,5.125q.544,2.864.993,5.749.9,5.762,1.449,11.572a.791.791,0,0,1-.192.648c-2.439,1.908-9.121,7.749-9.744,7.852-1.2.2-10.371-6.652-10.613-6.92a1.744,1.744,0,0,1-.325-1.152" fill="#17282f"/><path d="M513.491-310.539c-.107-6.6-.261-13.213-.685-19.8-.243-3.8-.52-7.591-.889-11.379-.013-.139-.228-.147-.221,0,.315,6.652.621,13.3.863,19.957.239,6.6.251,13.2.321,19.811.041,3.8.049,7.6.087,11.4a.11.11,0,0,0,.22,0c.368-6.659.412-13.319.305-19.985" fill="#17282f"/><path d="M495.964-420.572c-.056,1.425-4.859,11.535-11.149,12.445-2.049.292-4.147-10.821-4.147-10.821l-.344-.785-4.784-10.992,11.824-11.263,1.729-1.523s1.111,3.095,2.455,6.96c.064.18.128.359.192.551.083.217.163.421.229.627.208.575.419,1.163.615,1.753.152.448.3.884.444,1.36s.3.939.452,1.413a77.524,77.524,0,0,1,2.484,10.275" fill="#be5253"/><path d="M491.548-436.551a24.047,24.047,0,0,1-11.224,16.817l-4.784-10.992,11.824-11.263,1.729-1.523s1.111,3.095,2.455,6.96" fill="#17282f"/><path d="M484.007-465.94a1.961,1.961,0,0,1-.661,2.085,1.975,1.975,0,0,1-2.672-.2,2.086,2.086,0,0,1-.536.637,2.17,2.17,0,0,1-2.917-.191,1.834,1.834,0,0,1-.457.529,1.98,1.98,0,0,1-2.777-.312,1.954,1.954,0,0,1-.425-1.235,1.968,1.968,0,0,1-2.639-.415,1.891,1.891,0,0,1-.364-.744l-.136.117a1.969,1.969,0,0,1-2.771-.316,1.97,1.97,0,0,1-.357-1.768,1.949,1.949,0,0,1-2.416-.527,1.968,1.968,0,0,1-.287-1.977,2.2,2.2,0,0,1-1.219-.768,2.132,2.132,0,0,1-.449-1.62,2.152,2.152,0,0,1-1.453-.8,2.16,2.16,0,0,1-.073-2.605,2.005,2.005,0,0,1-.591-.5,1.965,1.965,0,0,1,.119-2.595,2.118,2.118,0,0,1-.748-.593,2.168,2.168,0,0,1,.339-3.055,2.033,2.033,0,0,1,.624-.341l-.243-.247a1.973,1.973,0,0,1,.307-2.772,1.944,1.944,0,0,1,.989-.415,2.164,2.164,0,0,1,.456-2.883,2.162,2.162,0,0,1,1.1-.457,2.179,2.179,0,0,1,.711-2.38,2.148,2.148,0,0,1,1.864-.407,1.942,1.942,0,0,1,.735-1.409,1.936,1.936,0,0,1,1.559-.4,2.147,2.147,0,0,1,.812-1.747,2.161,2.161,0,0,1,2.564-.1,1.983,1.983,0,0,1,.573-.751,1.971,1.971,0,0,1,2.595.119,2.061,2.061,0,0,1,.581-.729,2.168,2.168,0,0,1,3.049.343,1.936,1.936,0,0,1,.261.432l.257-.241a2.172,2.172,0,0,1,3.048.343,1.89,1.89,0,0,1,.279.465,1.889,1.889,0,0,1,.417-.453,2.176,2.176,0,0,1,3.059.345,2.161,2.161,0,0,1,.451,1.655,2.147,2.147,0,0,1,1.985.788,2.162,2.162,0,0,1,.467,1.551,1.964,1.964,0,0,1,2.32.577,1.978,1.978,0,0,1,.316,1.9,1.961,1.961,0,0,1,1.5.744,1.963,1.963,0,0,1,.115,2.289,2.14,2.14,0,0,1,1.56.808,2.176,2.176,0,0,1-.024,2.748,1.948,1.948,0,0,1,.548.469,1.973,1.973,0,0,1-.317,2.771,1.858,1.858,0,0,1-.623.333l.087.1a2.175,2.175,0,0,1-.345,3.059,1.965,1.965,0,0,1-.544.315,1.82,1.82,0,0,1,.381.364,1.967,1.967,0,0,1-.311,2.767,1.96,1.96,0,0,1-1.464.416,1.964,1.964,0,0,1-.709,1.877,1.963,1.963,0,0,1-1.433.419,2.168,2.168,0,0,1-.663,2.5,2.164,2.164,0,0,1-2.5.141,1.946,1.946,0,0,1-.719,1.775,1.988,1.988,0,0,1-2.187.187" fill="#17282f"/><path d="M511.628-439.806a1.959,1.959,0,0,1-.663,2.085,1.973,1.973,0,0,1-2.672-.2,2.076,2.076,0,0,1-.536.639,2.171,2.171,0,0,1-2.917-.191,1.833,1.833,0,0,1-.457.529,1.978,1.978,0,0,1-2.776-.313,1.95,1.95,0,0,1-.427-1.235,1.967,1.967,0,0,1-2.639-.413,1.919,1.919,0,0,1-.364-.744l-.136.117a1.969,1.969,0,0,1-2.771-.317,1.968,1.968,0,0,1-.357-1.767,1.953,1.953,0,0,1-2.416-.527,1.974,1.974,0,0,1-.287-1.979,2.192,2.192,0,0,1-1.217-.768,2.118,2.118,0,0,1-.449-1.62,2.159,2.159,0,0,1-1.455-.8,2.164,2.164,0,0,1-.073-2.607,2.017,2.017,0,0,1-.591-.5,1.966,1.966,0,0,1,.119-2.6,2.119,2.119,0,0,1-.748-.593,2.168,2.168,0,0,1,.339-3.053,2.051,2.051,0,0,1,.624-.343l-.243-.247a1.973,1.973,0,0,1,.307-2.772,1.94,1.94,0,0,1,.989-.413,2.163,2.163,0,0,1,.457-2.883,2.131,2.131,0,0,1,1.1-.457,2.182,2.182,0,0,1,.711-2.38,2.152,2.152,0,0,1,1.865-.407,1.943,1.943,0,0,1,.733-1.411,1.935,1.935,0,0,1,1.559-.4,2.147,2.147,0,0,1,.813-1.748,2.161,2.161,0,0,1,2.563-.1,1.986,1.986,0,0,1,.575-.751,1.973,1.973,0,0,1,2.595.119,2.031,2.031,0,0,1,.581-.728,2.165,2.165,0,0,1,3.048.343,1.955,1.955,0,0,1,.263.431l.256-.24a2.172,2.172,0,0,1,3.048.343,1.908,1.908,0,0,1,.279.464,1.916,1.916,0,0,1,.419-.452,2.175,2.175,0,0,1,3.059.344,2.158,2.158,0,0,1,.449,1.656,2.14,2.14,0,0,1,1.985.788,2.158,2.158,0,0,1,.468,1.549,1.961,1.961,0,0,1,2.319.577,1.976,1.976,0,0,1,.316,1.9,1.97,1.97,0,0,1,1.5.744,1.963,1.963,0,0,1,.115,2.291,2.129,2.129,0,0,1,1.56.808,2.172,2.172,0,0,1-.024,2.747,1.971,1.971,0,0,1,.548.469,1.974,1.974,0,0,1-.316,2.772,1.873,1.873,0,0,1-.624.332l.087.1a2.176,2.176,0,0,1-.344,3.059,2,2,0,0,1-.545.316,1.789,1.789,0,0,1,.381.364,1.967,1.967,0,0,1-.311,2.767,1.964,1.964,0,0,1-1.463.416,1.962,1.962,0,0,1-.711,1.876,1.969,1.969,0,0,1-1.432.42,2.168,2.168,0,0,1-.664,2.5,2.16,2.16,0,0,1-2.5.143,1.943,1.943,0,0,1-.72,1.773,1.983,1.983,0,0,1-2.185.187" fill="#17282f"/><path d="M457.571-451c-4.605,21.211,7.615,26.333,12.2,27.311,4.165.888,18.46,3.381,25.239-17.244s-1.656-29.449-11.073-31.98-21.764.7-26.368,21.913" fill="#be5253"/><path d="M460.859-453.074a14.125,14.125,0,0,0,1.5-.1,2.432,2.432,0,0,0,1.511-.392A.769.769,0,0,0,464-454.5a1.919,1.919,0,0,0-1.809-.709,2.833,2.833,0,0,0-1.895.735.823.823,0,0,0,.56,1.4" fill="#17282f"/><path d="M475.2-450.944a14.24,14.24,0,0,1-1.411-.513,2.427,2.427,0,0,1-1.34-.8.772.772,0,0,1,.137-.933,1.927,1.927,0,0,1,1.937-.176,2.817,2.817,0,0,1,1.609,1.233.825.825,0,0,1-.933,1.185" fill="#17282f"/><path d="M471.559-447.874l.091.147c-.292,1.449-.383,3.159.859,3.861l-.027.079c-1.575-.493-1.433-2.76-.923-4.087" fill="#17282f"/><path d="M473.12-449.179c2.38.212,1.772,4.943-.433,4.747-2.171-.195-1.563-4.924.433-4.747" fill="#17282f"/><path d="M474.02-448.811c.379.32.724.843,1.217.956.571.129,1.072-.311,1.511-.739l.075.064c-.1.908-.573,1.795-1.565,1.807-.905.011-1.44-.872-1.549-1.812-.021-.175.159-.405.312-.276" fill="#17282f"/><path d="M463.482-449.6l-.128.116c-.131,1.472-.529,3.136-1.919,3.465l0,.084c1.651-.036,2.157-2.251,2.044-3.665" fill="#17282f"/><path d="M462.354-451.29c-2.345-.46-3.1,4.251-.929,4.676,2.137.419,2.895-4.291.929-4.676" fill="#17282f"/><path d="M461.319-451.135c-.413.191-.856.585-1.307.544-.523-.048-.823-.617-1.075-1.159l-.081.04c-.169.9-.021,1.881.819,2.191.765.284,1.471-.4,1.829-1.26.068-.16-.02-.433-.185-.356" fill="#17282f"/><path d="M470.014-435.49c-.381.316-.775.763-1.313.764a3.919,3.919,0,0,1-1.557-.5l-.071.071a1.992,1.992,0,0,0,1.809.949,1.576,1.576,0,0,0,1.268-1.208l-.136-.077" fill="#17282f"/><path d="M464.622-441.627s-.609,2.144-.755,3.175c-.013.1.231.177.579.247l.04.007a4.978,4.978,0,0,0,5.031-1.172l-.133-.164a7.506,7.506,0,0,1-4.669.663c-.032-.3,1.169-3.636,1.007-3.671a9.1,9.1,0,0,0-2.423.205c1.141-4.5,3-8.785,4.067-13.284a.143.143,0,0,0-.261-.1c-2.263,4.353-3.691,9.505-4.989,14.123-.167.575,2.071.095,2.508-.024" fill="#17282f"/><path d="M464.6-438.574a5.983,5.983,0,0,0,1.989,2.293,2.718,2.718,0,0,0,1.589.421c1.225-.073,1.471-1.133,1.441-2.087a6.426,6.426,0,0,0-.239-1.5,7.813,7.813,0,0,1-4.781.871" fill="#17282f"/><path d="M466.592-436.28a2.718,2.718,0,0,0,1.589.421c1.225-.073,1.471-1.133,1.441-2.087a2.8,2.8,0,0,0-3.031,1.665" fill="#f578ba"/><path d="M474.371-470.315s-1.309,3.1-.54,5.588c1.584,5.111,7.505,4.676,9.193,6.849,1.583,2.039.409,5.621,1.819,7.635,1.951,2.788,5.224,2.287,5.365,3.995s.473,7.132,2.475,8.1,16.691-32.667-10.895-35.507c0,0-3.541-2.084-9.807.031-6.913,2.336-11.256,12.58-11.256,12.58s.159-.125,1.217-.821c1.493-.983,2.161-1.995,3.24-2.615,1.7-.975,2.468-.4,4.22-1.337a18.283,18.283,0,0,0,4.968-4.5" fill="#17282f"/><path d="M475.008-471.779a18.867,18.867,0,0,0-1.409,4.1,7.837,7.837,0,0,0-.007,4.181,5.737,5.737,0,0,0,2.791,2.911c1.236.671,2.653,1.015,3.976,1.78A4.331,4.331,0,0,1,482-457.156a5.8,5.8,0,0,1,.5,2.233,7.728,7.728,0,0,0,.969,4.032,4.776,4.776,0,0,0,3.452,2.08c1.381.2,2.965.031,4.225.835-1.321-.7-2.8-.405-4.261-.5a5.19,5.19,0,0,1-3.844-2.107,7.773,7.773,0,0,1-1.161-4.285,5.23,5.23,0,0,0-.461-1.985,3.676,3.676,0,0,0-1.411-1.364c-1.179-.713-2.612-1.093-3.919-1.819a7.433,7.433,0,0,1-1.8-1.356,4.523,4.523,0,0,1-1.2-1.941,8.2,8.2,0,0,1,.183-4.427,19.03,19.03,0,0,1,1.736-4.017" fill="#17282f"/><path d="M474.3-470.6a15.251,15.251,0,0,1-1.877,3.607,7.138,7.138,0,0,1-3.191,2.643,10.325,10.325,0,0,1-2,.467,3.292,3.292,0,0,0-1.625.785,10.241,10.241,0,0,1-1.427,1.455,4.529,4.529,0,0,1-1.888.771,5.035,5.035,0,0,0,1.673-1.032,10.192,10.192,0,0,0,1.248-1.547,3.5,3.5,0,0,1,1.879-1.06,11.134,11.134,0,0,0,1.9-.473,7.573,7.573,0,0,0,3-2.347A29.866,29.866,0,0,0,474.3-470.6" fill="#17282f"/><path d="M488.612-442.7s5.569-6.128,8.413-4.071-1.943,11.353-5.7,12.236a3.674,3.674,0,0,1-4.643-2.569l1.932-5.6" fill="#be5253"/><path d="M495.587-444.139l.007.1c-2.647.7-4.269,2.861-5.505,5.157a2.037,2.037,0,0,1,3.087-.171l-.085.125a2.271,2.271,0,0,0-2.572.472,10.977,10.977,0,0,0-1.439,1.844c-.147.211-.537.039-.419-.208l.028-.056c.345-3.208,3.412-7.372,6.9-7.263" fill="#17282f"/><path d="M463.528-363l-3.164,19.6,73.225,1.9s-9.2-55.989-26.853-75.065c-9.5-10.267-20.345-8.057-29.024,3.107-3.077,3.96-20.251,24.227-19.635,35.252.568,9.723,5.451,15.209,5.451,15.209" fill="#fe5832"/><path d="M499.955-408.788a13.651,13.651,0,0,0-3.2,1.945,13.1,13.1,0,0,0,3.6-1.067,12.962,12.962,0,0,0,3.185-1.947A13.487,13.487,0,0,0,499.955-408.788Zm-12.48,48.119a12.813,12.813,0,0,0-3.2,1.961,13.483,13.483,0,0,0,3.587-1.067,13.307,13.307,0,0,0,3.2-1.961A12.877,12.877,0,0,0,487.475-360.67Zm33.253-3.387a13.267,13.267,0,0,0-3.187,1.948,13.033,13.033,0,0,0,3.587-1.068,12.964,12.964,0,0,0,3.2-1.945A13.073,13.073,0,0,0,520.728-364.056Zm-19.719-15.2a13.752,13.752,0,0,0-1.948-3.2,13.079,13.079,0,0,0,1.067,3.6,12.942,12.942,0,0,0,1.947,3.187A13.629,13.629,0,0,0,501.009-379.256Zm-17.881-39.667-.039-.067c-.253.2-.507.413-.775.628a12.8,12.8,0,0,0,1.881,3.025A13.342,13.342,0,0,0,483.128-418.923Zm-9.907,44.641a13.078,13.078,0,0,0-3.639-.895,13.315,13.315,0,0,0,3.305,1.8,13.618,13.618,0,0,0,3.628.879,12.562,12.562,0,0,0-3.295-1.785Zm44.427-12.827a12.787,12.787,0,0,0-3.625-.881A12.71,12.71,0,0,0,517.3-386.2a13.218,13.218,0,0,0,3.641.879,12.778,12.778,0,0,0-3.295-1.785ZM503.035-349.39a13.583,13.583,0,0,0-.88,3.64,12.735,12.735,0,0,0,1.788-3.279,13.278,13.278,0,0,0,.879-3.641A13.459,13.459,0,0,0,503.035-349.39ZM474.676-344.2c-.147.385-.281.772-.388,1.16l.92.025c.135-.279.253-.573.36-.852a12.808,12.808,0,0,0,.881-3.641A13.143,13.143,0,0,0,474.676-344.2Zm7.559-50.041a12.879,12.879,0,0,0-.879,3.64,13.605,13.605,0,0,0,1.785-3.293,13.248,13.248,0,0,0,.881-3.627,13.071,13.071,0,0,0-1.788,3.28" fill="#fff"/><path d="M486.578-405.4c-6.266,11.138-33.189,43.626-45.221,45.507-8.765,1.369-22.372-16.607-31.886-24.312-2.983-2.416,22.381-24.2,24.6-21.195,5.113,6.917,9.36,10.35,9.848,10.041,2.906-1.836,17.33-11.811,32.193-21.969,12.4-8.471,18.406-2.182,10.468,11.929" transform="translate(0.98 2.124)" fill="#be5253"/><path d="M395.44-441.844c-2.525,3.092,5.627,8.672,5.627,8.672a7.37,7.37,0,0,0-4.855,1.238c-2.427,1.821-.635,6.427-.635,6.427a9.082,9.082,0,0,0-4.912,2.121c-2.148,1.977-1,6.881-1,6.881a8.313,8.313,0,0,0-3.145,4.586c-.846,3.714,2.119,8.558,6.358,13.254,4.787,5.306,13.059,9.285,16.21,10.908L433.149-403.8s-6.245-23.054-12.975-28.963c-3.735-3.278-20.872-13.81-24.733-9.083" transform="translate(4.059 6.528)" fill="#be5253"/><path d="M402.648-432.25c5.5,2.3,10.439,5.92,15.164,9.461l-.124.163c-4.659-3.576-10.388-5.993-15.18-9.377a.144.144,0,0,1,.14-.247" transform="translate(4.927 4.965)" fill="#17282f"/><path d="M396.666-423.874a15.554,15.554,0,0,1,3.3,2.375q1.662,1.38,3.277,2.816,3.234,2.872,6.325,5.9l-.125.161c-2.153-1.9-4.335-3.776-6.565-5.588q-1.676-1.36-3.372-2.693a18.512,18.512,0,0,1-3.077-2.661.205.205,0,0,1,.239-.313" transform="translate(4.927 4.965)" fill="#17282f"/><path d="M390.076-413.84a10.822,10.822,0,0,1,2.856,2.3q1.446,1.34,2.908,2.663c1.949,1.764,3.9,3.527,5.908,5.22l-.124.163c-2.051-1.711-4.124-3.395-6.159-5.124q-1.5-1.274-2.983-2.564a10.148,10.148,0,0,1-2.5-2.56l.092-.095" transform="translate(4.927 4.965)" fill="#17282f"/><path d="M446.2-393.559a32.873,32.873,0,0,1,6.457,9.955c-2.431-3.159-4.348-6.585-6.457-9.955" fill="#17282f"/><path d="M448.072-395.5l16.575,32.252s19.808-24.077,29.277-40.292,2.715-23.125-12.933-14.883S448.072-395.5,448.072-395.5" fill="#fe5832"/><path d="M482.235-394.243a12.88,12.88,0,0,0-.879,3.64,13.6,13.6,0,0,0,1.785-3.293,13.251,13.251,0,0,0,.881-3.627,13.073,13.073,0,0,0-1.788,3.28Zm-9.013,19.961a13.077,13.077,0,0,0-3.639-.895,12.838,12.838,0,0,0,3.159,1.747h.015l.6-.8Zm9.907-44.641c-.067-.147-.133-.292-.212-.439-.281.119-.56.253-.855.413.055.132.121.279.173.413a13.139,13.139,0,0,0,1.961,3.2,13.342,13.342,0,0,0-1.068-3.587ZM459.368-391.9a13.482,13.482,0,0,0-3.2,1.948,13,13,0,0,0,3.587-1.068,13.24,13.24,0,0,0,3.2-1.945,13.322,13.322,0,0,0-3.587,1.065" fill="#fff"/><path d="M455.363-397.994c.541,1.109,1.261,2.149,1.881,3.205s1.219,2.157,1.812,3.244q1.72,3.15,3.456,6.289c2.351,4.241,4.8,8.425,6.925,12.817l-.111.083a115.243,115.243,0,0,1-7.533-12.343q-1.754-3.2-3.428-6.448c-.565-1.1-1.123-2.212-1.639-3.344s-.944-2.336-1.513-3.419l.149-.085" fill="#17282f"/><path d="M490.844-398.532c-1.915,3.131-3.96,6.175-6.028,9.2-2.041,3.044-4.217,5.995-6.344,8.98-2.143,2.975-4.389,5.873-6.621,8.783-2.279,2.873-4.575,5.74-7.079,8.432l-.171.183-.1-.215c-.5-1.079-1-2.157-1.484-3.247.605,1.024,1.192,2.059,1.776,3.1l-.271-.033q3.372-4.33,6.6-8.769l6.516-8.839c2.2-2.925,4.325-5.909,6.551-8.82q3.29-4.4,6.653-8.752" fill="#17282f"/><path d="M490.264-395.554a6.581,6.581,0,0,1-1.591,2.069,11.508,11.508,0,0,1-1.032.8,7.972,7.972,0,0,1-1.14.64,44.941,44.941,0,0,0,3.763-3.513" fill="#17282f"/></g></g></svg>