<svg xmlns="http://www.w3.org/2000/svg" version="1.1" xmlns:xlink="http://www.w3.org/1999/xlink" width="512" height="512" x="0" y="0" viewBox="0 0 512 512" style="enable-background:new 0 0 512 512" xml:space="preserve" class=""><g><path d="M334.269 285.546a12.673 12.673 0 0 1-12.669 12.673h-83.139v83.134a12.673 12.673 0 1 1-25.346 0v-83.134h-83.134a12.673 12.673 0 1 1 0-25.346h83.134v-83.135a12.673 12.673 0 0 1 25.346 0v83.135H321.6a12.673 12.673 0 0 1 12.669 12.673zM512 72.39v308.129a71.827 71.827 0 0 1-61.426 70.974 71.826 71.826 0 0 1-70.721 59.841H71.724A71.8 71.8 0 0 1 0 439.61V131.481a71.827 71.827 0 0 1 61.425-70.974A71.827 71.827 0 0 1 132.147.666h308.129A71.8 71.8 0 0 1 512 72.39zm-85.77 59.091A46.43 46.43 0 0 0 379.853 85.1H71.724a46.43 46.43 0 0 0-46.377 46.378V439.61a46.43 46.43 0 0 0 46.377 46.378h308.129a46.43 46.43 0 0 0 46.377-46.378zm60.423-59.091a46.43 46.43 0 0 0-46.377-46.378H132.147a46.45 46.45 0 0 0-44.614 33.745h292.32a71.8 71.8 0 0 1 71.723 71.724V425.5a46.455 46.455 0 0 0 35.077-44.979z" fill="#000000" opacity="1" data-original="#000000" class=""></path></g></svg>