<svg xmlns="http://www.w3.org/2000/svg" width="563.523" height="607.645" viewBox="0 0 563.523 607.645">
  <g id="g8" transform="translate(0 607.645)">
    <g id="g10">
      <path id="path12" d="M530.841-205.913l-.189-7.539c-.06-2.484-.149-4.94-.175-7.383l.364.365c-5.884.068-11.768.211-17.653.217l-17.655.084.667-.667-.071,14.921-.6-.595c2.911.023,5.812.009,8.728.073l8.772.149Zm0,0-17.5.371-8.881.149c-2.968.063-5.951.051-8.928.073l-.591.005,0-.6-.072-14.921,0-.669.669,0,17.655.084c5.885.007,11.769.149,17.653.219l.368,0,0,.359c-.024,2.533-.115,5.049-.175,7.54l-.189,7.381" fill="#e7e8e5"/>
      <path id="path14" d="M511.145-187.1l-.188-7.537c-.06-2.484-.151-4.94-.175-7.381l.363.363c-5.884.069-11.768.212-17.653.219l-17.653.084.667-.665-.072,14.919-.595-.593c2.909.023,5.811.011,8.728.073l8.772.149Zm0,0-17.5.372-8.88.149c-2.967.063-5.952.051-8.927.072l-.591.005,0-.6-.072-14.919,0-.669.669,0,17.653.084c5.885.007,11.769.151,17.653.217l.368.005,0,.36c-.025,2.531-.115,5.048-.175,7.537l-.191,7.381" fill="#e7e8e5"/>
      <path id="path16" d="M550.537-187.1l-.189-7.537c-.06-2.484-.151-4.94-.175-7.381l.364.363c-5.885.069-11.769.212-17.653.219l-17.653.084.665-.665-.072,14.919-.593-.593c2.908.023,5.809.011,8.728.073l8.772.149Zm0,0-17.5.372-8.881.149c-2.967.063-5.951.051-8.925.072l-.593.005v-.6l-.072-14.919,0-.669.669,0,17.653.084c5.884.007,11.768.151,17.653.217l.368.005,0,.36c-.025,2.531-.115,5.048-.175,7.537l-.189,7.381" fill="#e7e8e5"/>
      <path id="path18" d="M48.4-205.913l-.19-7.539c-.06-2.484-.149-4.94-.174-7.383l.363.365c-5.884.068-11.769.211-17.654.217l-17.653.084.666-.667-.072,14.921-.594-.595c2.909.023,5.81.009,8.727.073l8.772.149Zm0,0-17.5.371-8.881.149c-2.968.063-5.951.051-8.926.073l-.592.005,0-.6-.072-14.921,0-.669.669,0,17.653.084c5.885.007,11.769.149,17.654.219l.368,0,0,.359c-.025,2.533-.114,5.049-.175,7.54l-.189,7.381" fill="#e7e8e5"/>
      <path id="path20" d="M68.094-187.1l-.19-7.537c-.06-2.484-.149-4.94-.174-7.381l.364.363c-5.885.069-11.769.212-17.654.219l-17.654.084.666-.665L33.381-187.1l-.594-.593c2.909.023,5.811.011,8.728.073l8.772.149Zm0,0-17.5.372-8.881.149c-2.968.063-5.951.051-8.927.072l-.591.005,0-.6L32.12-202.02l0-.669.669,0,17.654.084c5.885.007,11.769.151,17.654.217l.367.005,0,.36c-.025,2.531-.115,5.048-.175,7.537l-.19,7.381" fill="#e7e8e5"/>
      <path id="path22" d="M162.71-334.7l-.189-7.537c-.061-2.484-.151-4.94-.175-7.381l.363.364c-5.884.068-11.768.211-17.653.219l-17.653.083.665-.665L128-334.7l-.594-.593c2.909.023,5.81.011,8.728.073l8.772.149Zm0,0-17.5.372-8.881.149c-2.968.063-5.951.051-8.926.073l-.592.005,0-.6-.071-14.919,0-.669.669,0,17.653.083c5.885.007,11.769.151,17.653.219l.368,0,0,.36c-.025,2.531-.115,5.049-.176,7.537l-.188,7.381" fill="#e7e8e5"/>
      <path id="path24" d="M143.014-315.889l-.189-7.537c-.06-2.484-.149-4.94-.175-7.381l.364.363c-5.885.069-11.769.212-17.654.219l-17.653.084.666-.665-.071,14.919-.594-.593c2.908.023,5.81.011,8.728.073l8.772.149Zm0,0-17.5.372-8.882.149c-2.967.063-5.951.051-8.926.073l-.592.005,0-.6-.071-14.919,0-.669.67,0,17.653.084c5.885.007,11.769.151,17.654.219l.367,0,0,.36c-.025,2.531-.115,5.049-.175,7.537l-.189,7.381" fill="#e7e8e5"/>
      <path id="path26" d="M182.4-315.889l-.189-7.537c-.06-2.484-.149-4.94-.175-7.381l.364.363c-5.884.069-11.768.212-17.653.219l-17.653.084.665-.665-.071,14.919-.595-.593c2.909.023,5.811.011,8.728.073l8.772.149Zm0,0-17.5.372-8.881.149c-2.968.063-5.951.051-8.927.073l-.592.005,0-.6-.072-14.919,0-.669.669,0,17.653.084c5.885.007,11.769.151,17.653.219l.368,0,0,.36c-.024,2.531-.115,5.049-.175,7.537l-.189,7.381" fill="#e7e8e5"/>
      <path id="path28" d="M528.8-528.372l-.189-7.539c-.06-2.484-.149-4.94-.175-7.381l.364.364c-5.884.068-11.769.211-17.655.219l-17.653.083.667-.665-.072,14.92-.595-.595c2.909.023,5.812.011,8.728.073l8.772.149Zm0,0L511.3-528l-8.883.149c-2.967.064-5.949.051-8.927.073l-.591.005,0-.6-.072-14.92,0-.669.669,0,17.653.084c5.885.007,11.771.151,17.655.219l.368,0,0,.36c-.025,2.532-.115,5.049-.175,7.539l-.189,7.381" fill="#e7e8e5"/>
      <path id="path30" d="M548.5-509.56l-.191-7.537c-.059-2.484-.149-4.94-.173-7.381l.363.363c-5.884.069-11.768.212-17.653.219l-17.652.084.665-.665-.072,14.919-.593-.593c2.908.023,5.809.009,8.727.073l8.772.149Zm0,0-17.5.372-8.881.149c-2.968.064-5.951.051-8.925.073l-.593.005,0-.6-.071-14.919,0-.669.669,0,17.652.083c5.885.007,11.769.151,17.653.219l.368,0,0,.36c-.025,2.531-.115,5.049-.175,7.537l-.189,7.381" fill="#e7e8e5"/>
      <path id="path32" d="M48.292-528.356l-.189-7.539c-.06-2.484-.15-4.94-.174-7.381l.363.364c-5.884.068-11.769.211-17.654.219l-17.654.083.666-.665-.072,14.92-.594-.595c2.909.024,5.811.011,8.728.073l8.772.149Zm0,0-17.5.371-8.881.149c-2.968.063-5.951.051-8.926.075l-.592,0,0-.6-.071-14.92,0-.669.669,0,17.654.084c5.884.007,11.769.151,17.654.219l.367,0,0,.36c-.026,2.532-.115,5.049-.175,7.539l-.19,7.381" fill="#e7e8e5"/>
      <path id="path34" d="M178.954-418.732H105.9v-88.61h73.051v88.61" fill="#e7e8e5"/>
      <path id="path36" d="M170.608-426.82H114.25v-72.436h56.357v72.436" fill="#fff"/>
      <path id="path38" d="M116.45-426.82h-2.2v-72.436h2.2v72.436" fill="#d4d6d3"/>
      <path id="path40" d="M181.154-418.732h-2.2v-88.61h2.2v88.61" fill="#d4d6d3"/>
      <path id="path42" d="M146.425-449.679H133.137v-39.591h13.288v39.591" fill="#d4d6d3"/>
      <path id="path44" d="M162.773-442.916H127.34v-19.4h35.433Z" fill="none" stroke="#fe5832" stroke-miterlimit="10" stroke-width="1.333"/>
      <path id="path46" d="M92.1-325.109H19.046v-88.61H92.1v88.61" fill="#e7e8e5"/>
      <path id="path48" d="M83.75-333.2H27.393v-72.434H83.75V-333.2" fill="#fff"/>
      <path id="path50" d="M29.592-333.2h-2.2v-72.434h2.2V-333.2" fill="#d4d6d3"/>
      <path id="path52" d="M94.3-325.109H92.1v-88.61h2.2v88.61" fill="#d4d6d3"/>
      <path id="path54" d="M61.5-358.123H50.114v-28.784H61.5v28.784" fill="#e7e8e5"/>
      <path id="path56" d="M73.486-349.571H42.9v-19.843H73.486Z" fill="none" stroke="#fe5832" stroke-miterlimit="10" stroke-width="1.333"/>
      <path id="path58" d="M522.384-84.007H417.82v-144.7H522.384v144.7" fill="#e7e8e5"/>
      <path id="path60" d="M527.451-228.709h-114.7v-5.368h114.7v5.368" fill="#d4d6d3"/>
      <path id="path62" d="M563.523-228.709H527.451v-5.368h36.072v5.368" fill="#e7e8e5"/>
      <path id="path64" d="M557.811-84.007H522.384v-144.7h35.427v144.7" fill="#d4d6d3"/>
      <path id="path66" d="M511-161.866H429.208v-46.112H511Z" fill="none" stroke="#bebfbd" stroke-miterlimit="10" stroke-width="0.333"/>
      <path id="path68" d="M474.625-185.373H458.652v-9.181h15.973v9.181" fill="#bebfbd"/>
      <path id="path70" d="M479.347-186.065H463.374v-7.8h15.973Z" fill="none" stroke="#bebfbd" stroke-miterlimit="10" stroke-width="0.333"/>
      <path id="path72" d="M511-103.61H429.208v-46.112H511Z" fill="none" stroke="#bebfbd" stroke-miterlimit="10" stroke-width="0.333"/>
      <path id="path74" d="M474.625-127.118H458.652V-136.3h15.973v9.179" fill="#bebfbd"/>
      <path id="path76" d="M479.347-127.809H463.374v-7.8h15.973Z" fill="none" stroke="#bebfbd" stroke-miterlimit="10" stroke-width="0.333"/>
      <path id="path78" d="M525.793-481.649v-126" fill="none" stroke="#bebfbd" stroke-miterlimit="10" stroke-width="1.333"/>
      <path id="path80" d="M488.067-445.283l3.033,6.671h69.393l3.027-6.671-29.545-20.448H517.609l-29.543,20.448" fill="#e7e8e5"/>
      <path id="path82" d="M515.559-485.432l2.051,19.7h16.365l2.052-19.7H515.559" fill="#d4d6d3"/>
      <path id="path84" d="M488.069-445.28l3.035,6.671H560.5l3.025-6.671H488.07" fill="#d4d6d3"/>
      <path id="path86" d="M449.731-520.519v-87.127" fill="none" stroke="#bebfbd" stroke-miterlimit="10" stroke-width="1.333"/>
      <path id="path88" d="M412-484.152l3.035,6.669h69.392l3.027-6.669L457.915-504.6H441.547L412-484.152" fill="#e7e8e5"/>
      <path id="path90" d="M439.5-524.3l2.049,19.7h16.368l2.049-19.7H439.5" fill="#d4d6d3"/>
      <path id="path92" d="M412.008-484.149l3.033,6.671h69.393l3.025-6.671H412.008" fill="#d4d6d3"/>
      <path id="path94" d="M546.18-31.841C546.18-14.256,427.8,0,281.761,0S17.342-14.256,17.342-31.841s118.384-31.84,264.418-31.84,264.419,14.255,264.419,31.84" fill="#e7e8e5"/>
      <path id="path96" d="M0-84.007l70.44-.324,70.441-.117,140.88-.224,140.88.222,70.442.116,70.44.327-70.44.327-70.442.118-140.88.221-140.88-.223L70.44-83.681,0-84.007" fill="#17282f"/>
      <path id="path98" d="M381.826-77.872c0,11.692-8.755,21.148-19.552,21.148H169.249c-10.823,0-19.579-9.456-19.579-21.148V-504.225c0-23.815,8.756-24.976,19.579-24.976h38.671c2.247,0,4.084,2.552,4.084,5.717v1.365c0,7.415,4.059,7.441,9.037,7.441h89.416c5.028,0,9.061-.027,9.061-7.441v-1.365c0-3.165,1.812-5.717,4.1-5.717h38.659c10.8,0,19.552,3.164,19.552,24.976Zm-8.193-465.42H157.864A22.027,22.027,0,0,0,136.04-521.06V-64.138a22.044,22.044,0,0,0,21.824,22.233H373.632a22.065,22.065,0,0,0,21.849-22.233V-521.06a22.048,22.048,0,0,0-21.849-22.232" fill="#17282f"/>
      <path id="path100" d="M381.826-504.225V-77.872c0,11.692-8.755,21.148-19.552,21.148H169.249c-10.823,0-19.579-9.456-19.579-21.148V-504.225c0-23.815,8.756-24.976,19.579-24.976h38.671c2.247,0,4.084,2.552,4.084,5.717v1.365c0,7.415,4.059,7.441,9.037,7.441h89.416c5.028,0,9.061-.027,9.061-7.441v-1.365c0-3.165,1.812-5.717,4.1-5.717h38.659c10.8,0,19.552,3.164,19.552,24.976" fill="#fff"/>
      <path id="path102" d="M381.826-504.225V-77.872c0,11.692-8.755,21.148-19.552,21.148H169.249c-10.823,0-19.579-9.456-19.579-21.148V-504.225c0-23.815,8.756-24.976,19.579-24.976h38.671c2.247,0,4.084,2.552,4.084,5.717v1.365c0,7.415,4.059,7.441,9.037,7.441h89.416c5.028,0,9.061-.027,9.061-7.441v-1.365c0-3.165,1.812-5.717,4.1-5.717h38.659c10.8,0,19.552,3.164,19.552,24.976" fill="#fff"/>
      <path id="path104" d="M381.826-504.225v36.82H149.67v-36.82c0-23.815,8.756-24.976,19.579-24.976h38.671c2.247,0,4.084,2.552,4.084,5.717v1.365c0,7.415,4.059,7.441,9.037,7.441h89.416c5.028,0,9.061-.027,9.061-7.441v-1.365c0-3.165,1.812-5.717,4.1-5.717h38.659c10.8,0,19.552,3.164,19.552,24.976" fill="#fe5832"/>
      <path id="path106" d="M201.243-519.913l-.375.372c-.071.069-.141.141-.211.212a5.013,5.013,0,0,0-3.6-1.493,5.015,5.015,0,0,0-3.6,1.5c-.067-.069-.133-.14-.2-.209-.121-.125-.245-.248-.368-.372a.09.09,0,0,0-.012-.007v-.009l.028-.021c.157-.14.311-.285.472-.419a5.545,5.545,0,0,1,1.093-.7,5.551,5.551,0,0,1,1.448-.487c.239-.044.481-.067.724-.1.081-.009.616-.012.632-.011.165.013.329.02.493.037a5.608,5.608,0,0,1,1.328.317,5.738,5.738,0,0,1,.9.42,5.73,5.73,0,0,1,.859.6c.133.115.263.237.395.355v.009" fill="#fff"/>
      <path id="path108" d="M194.64-518.155c-.2-.2-.391-.388-.589-.585a4.153,4.153,0,0,1,2.4-1.207,4.213,4.213,0,0,1,3.613,1.2l-.593.591a3.36,3.36,0,0,0-2.415-1,3.371,3.371,0,0,0-2.417,1" fill="#fff"/>
      <path id="path110" d="M198.882-517.565c-.195.195-.389.389-.588.585a1.729,1.729,0,0,0-1.237-.512,1.73,1.73,0,0,0-1.237.516c-.2-.2-.392-.392-.587-.587a2.566,2.566,0,0,1,3.649,0" fill="#fff"/>
      <path id="path112" d="M197.588-516.445a.53.53,0,0,1-.531.531.53.53,0,0,1-.529-.531.53.53,0,0,1,.529-.531.53.53,0,0,1,.531.531" fill="#fff"/>
      <path id="path114" d="M164.813-518.784a1.539,1.539,0,0,1,1.539-1.539,1.539,1.539,0,0,1,1.539,1.539,1.538,1.538,0,0,1-1.539,1.539,1.538,1.538,0,0,1-1.539-1.539" fill="#fff"/>
      <path id="path116" d="M169.66-518.784a1.539,1.539,0,0,1,1.539-1.539,1.539,1.539,0,0,1,1.539,1.539,1.538,1.538,0,0,1-1.539,1.539,1.538,1.538,0,0,1-1.539-1.539" fill="#fff"/>
      <path id="path118" d="M174.5-518.784a1.539,1.539,0,0,1,1.539-1.539,1.54,1.54,0,0,1,1.54,1.539,1.539,1.539,0,0,1-1.54,1.539,1.538,1.538,0,0,1-1.539-1.539" fill="#fff"/>
      <path id="path120" d="M179.352-518.784a1.539,1.539,0,0,1,1.539-1.539,1.539,1.539,0,0,1,1.539,1.539,1.538,1.538,0,0,1-1.539,1.539,1.538,1.538,0,0,1-1.539-1.539" fill="#fff"/>
      <path id="path122" d="M184.2-518.784a1.54,1.54,0,0,1,1.54-1.539,1.539,1.539,0,0,1,1.539,1.539,1.538,1.538,0,0,1-1.539,1.539,1.539,1.539,0,0,1-1.54-1.539" fill="#fff"/>
      <path id="path124" d="M352.527-516.063h11.249v-4.527H352.527Zm11.888.637H351.89v-5.8h12.525v5.8" fill="#fff"/>
      <path id="path126" d="M361-520.241h-8.075v3.831H361v-3.831" fill="#fff"/>
      <path id="path128" d="M365.536-516.775h-1.115v-3.1h1.115v3.1" fill="#fff"/>
      <path id="path130" d="M170.834-481.028l-6.859-6.427,6.859-6.425,1.064,1.133-5.648,5.292,5.648,5.293-1.064,1.133" fill="#fff"/>
      <path id="path132" d="M360.688-493.88l6.857,6.427-6.857,6.425-1.065-1.133,5.648-5.292-5.648-5.295,1.065-1.132" fill="#fff"/>
      <path id="path134" d="M277.951-523.94H253.561a1.507,1.507,0,0,1-1.507-1.507h0a1.507,1.507,0,0,1,1.507-1.507h24.391a1.507,1.507,0,0,1,1.507,1.507h0a1.507,1.507,0,0,1-1.507,1.507" fill="#fff"/>
      <path id="path136" d="M366.094-398.606H165.429v-50.44H366.094v50.44" fill="#e7e8e5"/>
      <path id="path138" d="M194.729-439.01a15.2,15.2,0,0,0-15.184,15.184,15.2,15.2,0,0,0,15.184,15.184,15.2,15.2,0,0,0,15.185-15.184A15.2,15.2,0,0,0,194.729-439.01Zm0,32.812A17.647,17.647,0,0,1,177.1-423.826a17.646,17.646,0,0,1,17.627-17.627,17.647,17.647,0,0,1,17.628,17.627A17.648,17.648,0,0,1,194.729-406.2" fill="#d4d6d3"/>
      <path id="path140" d="M203.277-417.2l-1.923,1.923-15.172-15.173,1.923-1.921L203.277-417.2" fill="#d4d6d3"/>
      <path id="path142" d="M201.354-432.372l1.923,1.921L188.1-415.278l-1.923-1.923,15.172-15.172" fill="#d4d6d3"/>
      <path id="path144" d="M354.42-434.834H225.337v-2.443H354.42v2.443" fill="#d4d6d3"/>
      <path id="path146" d="M354.42-425.087H225.337v-2.443H354.42v2.443" fill="#d4d6d3"/>
      <path id="path148" d="M330.715-420.182H225.337v-2.444H330.715v2.444" fill="#d4d6d3"/>
      <path id="path150" d="M295.269-415.278H225.337v-2.444h69.932v2.444" fill="#d4d6d3"/>
      <path id="path152" d="M330.715-410.374H225.337v-2.444H330.715v2.444" fill="#d4d6d3"/>
      <path id="path154" d="M366.094-269.237H165.429v-50.439H366.094v50.439" fill="#e7e8e5"/>
      <path id="path156" d="M194.729-309.639a15.2,15.2,0,0,0-15.184,15.184,15.2,15.2,0,0,0,15.184,15.184,15.2,15.2,0,0,0,15.185-15.184A15.2,15.2,0,0,0,194.729-309.639Zm0,32.811A17.646,17.646,0,0,1,177.1-294.455a17.647,17.647,0,0,1,17.627-17.628,17.648,17.648,0,0,1,17.628,17.628,17.647,17.647,0,0,1-17.628,17.627" fill="#d4d6d3"/>
      <path id="path158" d="M203.277-287.831l-1.923,1.923-15.172-15.172L188.1-303l15.172,15.172" fill="#d4d6d3"/>
      <path id="path160" d="M201.354-303l1.923,1.923L188.1-285.909l-1.923-1.923L201.354-303" fill="#d4d6d3"/>
      <path id="path162" d="M354.42-305.463H225.337v-2.444H354.42v2.444" fill="#d4d6d3"/>
      <path id="path164" d="M354.42-295.717H225.337v-2.444H354.42v2.444" fill="#d4d6d3"/>
      <path id="path166" d="M330.715-290.813H225.337v-2.444H330.715v2.444" fill="#d4d6d3"/>
      <path id="path168" d="M295.269-285.909H225.337v-2.444h69.932v2.444" fill="#d4d6d3"/>
      <path id="path170" d="M330.715-281H225.337v-2.444H330.715V-281" fill="#d4d6d3"/>
      <path id="path172" d="M366.094-203.713H165.429v-50.439H366.094v50.439" fill="#e7e8e5"/>
      <path id="path174" d="M194.729-244.117a15.2,15.2,0,0,0-15.184,15.184,15.2,15.2,0,0,0,15.184,15.185,15.2,15.2,0,0,0,15.185-15.185A15.2,15.2,0,0,0,194.729-244.117Zm0,32.813A17.648,17.648,0,0,1,177.1-228.933a17.647,17.647,0,0,1,17.627-17.627,17.648,17.648,0,0,1,17.628,17.627A17.649,17.649,0,0,1,194.729-211.3" fill="#d4d6d3"/>
      <path id="path176" d="M203.277-222.306l-1.923,1.921-15.172-15.172,1.923-1.923,15.172,15.173" fill="#d4d6d3"/>
      <path id="path178" d="M201.354-237.479l1.923,1.923L188.1-220.385l-1.923-1.921,15.172-15.173" fill="#d4d6d3"/>
      <path id="path180" d="M354.42-239.939H225.337v-2.444H354.42v2.444" fill="#d4d6d3"/>
      <path id="path182" d="M354.42-230.193H225.337v-2.444H354.42v2.444" fill="#d4d6d3"/>
      <path id="path184" d="M330.715-225.287H225.337v-2.444H330.715v2.444" fill="#d4d6d3"/>
      <path id="path186" d="M295.269-220.385H225.337v-2.444h69.932v2.444" fill="#d4d6d3"/>
      <path id="path188" d="M330.715-215.481H225.337v-2.443H330.715v2.443" fill="#d4d6d3"/>
      <path id="path190" d="M366.094-138.189H165.429v-50.439H366.094v50.439" fill="#e7e8e5"/>
      <path id="path192" d="M194.729-178.592a15.2,15.2,0,0,0-15.184,15.184,15.2,15.2,0,0,0,15.184,15.183,15.2,15.2,0,0,0,15.185-15.183A15.2,15.2,0,0,0,194.729-178.592Zm0,32.811A17.646,17.646,0,0,1,177.1-163.408a17.647,17.647,0,0,1,17.627-17.628,17.648,17.648,0,0,1,17.628,17.628,17.647,17.647,0,0,1-17.628,17.627" fill="#d4d6d3"/>
      <path id="path194" d="M203.277-156.784l-1.923,1.923-15.172-15.172,1.923-1.921,15.172,15.171" fill="#d4d6d3"/>
      <path id="path196" d="M201.354-171.954l1.923,1.921L188.1-154.861l-1.923-1.923,15.172-15.171" fill="#d4d6d3"/>
      <path id="path198" d="M354.42-174.416H225.337v-2.444H354.42v2.444" fill="#d4d6d3"/>
      <path id="path200" d="M354.42-164.669H225.337v-2.444H354.42v2.444" fill="#d4d6d3"/>
      <path id="path202" d="M330.715-159.765H225.337v-2.444H330.715v2.444" fill="#d4d6d3"/>
      <path id="path204" d="M295.269-154.861H225.337V-157.3h69.932v2.443" fill="#d4d6d3"/>
      <path id="path206" d="M330.715-149.956H225.337V-152.4H330.715v2.444" fill="#d4d6d3"/>
      <path id="path208" d="M372.676-332.432H158.846V-386.18h213.83v53.748" fill="#fe5832"/>
      <path id="path210" d="M155.5-328.855H376.019v-60.9H155.5Zm221.849,1.333H154.17v-63.569H377.352v63.569" fill="#fe5832"/>
      <path id="path212" d="M187.466-349.6l-7.312-7.4,2.456-2.427,4.272,4.323,8.873-13.912,2.912,1.857-11.2,17.56" fill="#fff"/>
      <path id="path214" d="M190.069-375.486a16.2,16.2,0,0,0-16.18,16.18,16.2,16.2,0,0,0,16.18,16.18,16.2,16.2,0,0,0,16.181-16.18A16.2,16.2,0,0,0,190.069-375.486Zm0,34.964a18.805,18.805,0,0,1-18.784-18.784,18.805,18.805,0,0,1,18.784-18.784,18.805,18.805,0,0,1,18.784,18.784,18.805,18.805,0,0,1-18.784,18.784" fill="#fff"/>
      <path id="path216" d="M360.238-371.035H222.685v-2.605H360.238v2.605" fill="#fff"/>
      <path id="path218" d="M360.238-360.65H222.685v-2.6H360.238v2.6" fill="#fff"/>
      <path id="path220" d="M334.975-355.423H222.685v-2.6h112.29v2.6" fill="#fff"/>
      <path id="path222" d="M297.2-350.2h-74.52v-2.6H297.2v2.6" fill="#fff"/>
      <path id="path224" d="M334.975-344.973H222.685v-2.6h112.29v2.6" fill="#fff"/>
      <path id="path226" d="M250.538-86.707a3.3,3.3,0,0,1-3.3,3.3,3.3,3.3,0,0,1-3.3-3.3,3.3,3.3,0,0,1,3.3-3.3,3.3,3.3,0,0,1,3.3,3.3" fill="#d4d6d3"/>
      <path id="path228" d="M271.179-86.707a5.419,5.419,0,0,1-5.419,5.419,5.418,5.418,0,0,1-5.417-5.419,5.417,5.417,0,0,1,5.417-5.417,5.418,5.418,0,0,1,5.419,5.417" fill="#fe5832"/>
      <path id="path230" d="M287.582-86.707a3.3,3.3,0,0,1-3.3,3.3,3.3,3.3,0,0,1-3.3-3.3,3.3,3.3,0,0,1,3.3-3.3,3.3,3.3,0,0,1,3.3,3.3" fill="#d4d6d3"/>
      <path id="path232" d="M402.174-435.072s-.2.04-.533.133a.313.313,0,0,1,.095-.16h.013c.267.027.425.027.425.027" fill="#17282f"/>
      <path id="path234" d="M443.547-370.252s0-.007,0-.007" fill="none" stroke="#f576b7" stroke-linecap="round" stroke-linejoin="round" stroke-width="1"/>
      <path id="path236" d="M443.547-370.252s0-.007,0-.007" fill="none" stroke="#f576b7" stroke-linecap="round" stroke-linejoin="round" stroke-width="1"/>
      <path id="path238" d="M417.522-49.873a1.513,1.513,0,0,0-.241.027v-.173a2.433,2.433,0,0,1,.241.146" fill="#f68c95"/>
      <path id="path240" d="M439.518-388.038c6.951,34.444,29.733,89.842,31.976,97.688,1.9,6.653,41.992-5.816,39.232-9.681-3.533-4.951-38.865-67.162-55.841-89.593-14-18.5-18.631-14.588-15.367,1.587" fill="#f68c95"/>
      <path id="path242" d="M508.915-302.869c4.171,5.489,10.7,21.173,12.2,26.409s4.707,20.615.813,22.167-5.193-2.875-5.193-2.875.328,6.709-3.735,7.915S507.14-255,507.14-255s-.167,6.915-4.3,7.828-4.772-6.384-4.772-6.384.143,6.329-3.583,5.648c-4.48-.821-3.425-12.519-5.511-18.175-.472-1.285-11.447-25.352-11.447-25.352l31.389-11.432" fill="#f68c95"/>
      <path id="path244" d="M498.8-253.347c.755-8.6-.4-12.5-4.3-20.059-.076-.148.127-.295.22-.148,4.485,7.056,6.643,11.732,4.491,20.264-.105.417-.452.351-.415-.057" fill="#17282f"/>
      <path id="path246" d="M507.739-254.734c0-9.005-1.215-13.241-4.711-21.459-.049-.116.143-.212.2-.1,4.1,7.775,6.147,12.489,4.963,21.485-.055.408-.455.483-.455.072" fill="#17282f"/>
      <path id="path248" d="M517.211-258c-.627-8.719-1.761-13.42-6.179-20.961a.161.161,0,0,1,.268-.179c5.252,7.252,6.712,13.109,6.173,21.092-.036.545-.224.6-.263.048" fill="#17282f"/>
      <path id="path250" d="M471.24-294.447s.491,10.811,1.755,15.513,12.421,20.491,15.969,18.273c4.579-2.86-.067-13.244-3.007-18.032,0,0,10.6-6.609,8.877-14.784s-23.595-.971-23.595-.971" fill="#f68c95"/>
      <path id="path252" d="M489.965-261.858c2.292-5.623-1.972-11.659-4.477-16.517a.5.5,0,0,1,.351-.743c4.259-3.067,9.371-8.633,9.283-14.171a.127.127,0,0,1,.252-.025c.9,5.927-3.676,11.805-8.555,14.865,2.648,4.941,6.657,11.184,3.2,16.615-.02.031-.068.011-.052-.024" fill="#17282f"/>
      <path id="path254" d="M506.777-312.949S466.055-294.727,465.1-293.9c0,0-26.24-82.636-28.4-96.646s2.925-17.793,11.9-8.045c14.78,16.043,58.171,85.645,58.171,85.645" fill="#d4d6d3"/>
      <path id="path256" d="M466.334-297.073a1.423,1.423,0,0,0-1.413,1.413,1.4,1.4,0,0,0,.96,1.333c.44-.213,1.04-.507,1.787-.867a1.374,1.374,0,0,0,.081-.467,1.415,1.415,0,0,0-1.415-1.413Zm34.46-24.719a1.414,1.414,0,0,0-1.415,1.413,1.415,1.415,0,0,0,1.415,1.415,1.413,1.413,0,0,0,1.413-1.415A1.413,1.413,0,0,0,500.793-321.791Zm-17.228,0a1.414,1.414,0,0,0-1.415,1.413,1.415,1.415,0,0,0,1.415,1.415,1.413,1.413,0,0,0,1.413-1.415A1.413,1.413,0,0,0,483.565-321.791Zm-17.228,0a1.414,1.414,0,0,0-1.415,1.413,1.415,1.415,0,0,0,1.415,1.415,1.414,1.414,0,0,0,1.413-1.415A1.413,1.413,0,0,0,466.338-321.791Zm25.843,12.307a1.414,1.414,0,0,0-1.415,1.413,1.415,1.415,0,0,0,1.415,1.415,1.414,1.414,0,0,0,1.413-1.415A1.414,1.414,0,0,0,492.18-309.485Zm-17.229,0a1.414,1.414,0,0,0-1.413,1.413,1.414,1.414,0,0,0,1.413,1.415,1.413,1.413,0,0,0,1.413-1.415A1.413,1.413,0,0,0,474.951-309.485Zm8.615-37.028a1.413,1.413,0,0,0-1.415,1.413,1.415,1.415,0,0,0,1.415,1.415,1.413,1.413,0,0,0,1.413-1.415A1.412,1.412,0,0,0,483.565-346.512Zm-17.228,0a1.413,1.413,0,0,0-1.415,1.413,1.415,1.415,0,0,0,1.415,1.415,1.413,1.413,0,0,0,1.413-1.415A1.412,1.412,0,0,0,466.338-346.512Zm-17.231,0a1.66,1.66,0,0,0-.267.027c.267.893.533,1.8.813,2.693a1.4,1.4,0,0,0,.868-1.307,1.407,1.407,0,0,0-1.415-1.413Zm43.073,12.307a1.413,1.413,0,0,0-1.415,1.413,1.415,1.415,0,0,0,1.415,1.415,1.414,1.414,0,0,0,1.413-1.415A1.413,1.413,0,0,0,492.18-334.206Zm-17.229,0a1.413,1.413,0,0,0-1.413,1.413,1.414,1.414,0,0,0,1.413,1.415,1.413,1.413,0,0,0,1.413-1.415A1.412,1.412,0,0,0,474.951-334.206Zm-17.228,0a1.414,1.414,0,0,0-1.415,1.413,1.415,1.415,0,0,0,1.415,1.415,1.415,1.415,0,0,0,1.415-1.415A1.413,1.413,0,0,0,457.723-334.206Zm8.615-37.028a1.414,1.414,0,0,0-1.415,1.413,1.413,1.413,0,0,0,1.415,1.413,1.412,1.412,0,0,0,1.413-1.413A1.412,1.412,0,0,0,466.338-371.234Zm-17.228,0a1.413,1.413,0,0,0-1.415,1.413,1.413,1.413,0,0,0,1.415,1.413,1.414,1.414,0,0,0,1.415-1.413A1.414,1.414,0,0,0,449.11-371.234Zm25.841,12.307a1.413,1.413,0,0,0-1.413,1.413,1.413,1.413,0,0,0,1.413,1.413,1.412,1.412,0,0,0,1.413-1.413A1.412,1.412,0,0,0,474.951-358.927Zm-17.228,0a1.413,1.413,0,0,0-1.415,1.413,1.413,1.413,0,0,0,1.415,1.413,1.413,1.413,0,0,0,1.415-1.413A1.413,1.413,0,0,0,457.723-358.927Zm-8.613-37.028a1.413,1.413,0,0,0-1.415,1.413,1.413,1.413,0,0,0,1.415,1.413,1.414,1.414,0,0,0,1.415-1.413A1.414,1.414,0,0,0,449.11-395.955Zm8.613,12.307a1.413,1.413,0,0,0-1.415,1.413,1.413,1.413,0,0,0,1.415,1.413,1.413,1.413,0,0,0,1.415-1.413A1.413,1.413,0,0,0,457.723-383.648Zm-15.813,1.413a1.413,1.413,0,0,1-1.415,1.413,1.412,1.412,0,0,1-1.413-1.413,1.412,1.412,0,0,1,1.413-1.413,1.413,1.413,0,0,1,1.415,1.413" fill="#fff"/>
      <path id="path258" d="M436.7-390.551c2.159,14.017,28.407,96.65,28.407,96.65.7-.613,21.5-10.041,34.215-15.723l-55.127-92.9c-6.153-4.136-9.268.472-7.495,11.976" fill="#bebfbd"/>
      <path id="path260" d="M496.993-321.037c.105-.041.2.1.1.161-5.32,3.037-29.869,14.081-33.252,15.153-.1.032-.175-.132-.08-.179,11.313-5.644,22.593-11.033,33.236-15.136" fill="#17282f"/>
      <path id="path262" d="M436.6-404.918c-.057,1.365-4.677,11.032-10.7,11.889-1.963.276-3.945-10.368-3.945-10.368l-.327-.752-4.556-10.535,11.345-10.755,1.659-1.453s1.056,2.965,2.335,6.668c.061.172.12.344.181.528.079.208.156.4.217.6.2.551.4,1.115.587,1.679.144.431.287.848.421,1.3s.281.9.429,1.355a73.951,73.951,0,0,1,2.355,9.84" fill="#f68c95"/>
      <path id="path264" d="M432.408-420.223a23.027,23.027,0,0,1-10.783,16.075l-4.556-10.535,11.345-10.755,1.659-1.453s1.056,2.965,2.335,6.668" fill="#17282f"/>
      <path id="path266" d="M398.574-429.324c.772,20.127,12.872,22.141,17.255,21.765,3.928-.336,17.336-1.185,18.647-21.285s-8.291-26.1-17.32-26.224-19.353,5.616-18.581,25.744" fill="#f68c95"/>
      <path id="path268" d="M399.4-433.714a12.858,12.858,0,0,0,1.321-.433,2.239,2.239,0,0,0,1.264-.7.715.715,0,0,0-.095-.869,1.778,1.778,0,0,0-1.787-.224,2.6,2.6,0,0,0-1.528,1.1.763.763,0,0,0,.824,1.128" fill="#17282f"/>
      <path id="path270" d="M412.41-434.412a13.343,13.343,0,0,1-1.385-.139,2.252,2.252,0,0,1-1.385-.409.718.718,0,0,1-.093-.871,1.776,1.776,0,0,1,1.7-.6,2.607,2.607,0,0,1,1.728.74.764.764,0,0,1-.561,1.28" fill="#17282f"/>
      <path id="path272" d="M409.994-429.163c.005-.053.112.056.115.112.073,1.371.388,2.927,1.663,3.276.039.011.041.079-.005.076-1.525-.083-1.923-2.155-1.772-3.464" fill="#17282f"/>
      <path id="path274" d="M411.091-430.694c2.185-.355,2.732,4.04.709,4.367-1.992.323-2.539-4.069-.709-4.367" fill="#17282f"/>
      <path id="path276" d="M411.983-430.568c.416.2.847.592,1.315.58.541-.015.889-.524,1.183-1.011.032-.051.073-.016.083.041.117.84-.1,1.745-.985,1.983-.809.217-1.495-.455-1.809-1.275-.059-.152.048-.4.215-.319" fill="#17282f"/>
      <path id="path278" d="M402.583-429.008c-.016-.052-.1.077-.088.133.224,1.353.252,2.941-.919,3.556-.037.019-.024.087.021.075,1.473-.411,1.416-2.519.985-3.764" fill="#17282f"/>
      <path id="path280" d="M401.182-430.268c-2.209.123-1.8,4.532.247,4.417,2.015-.112,1.6-4.521-.247-4.417" fill="#17282f"/>
      <path id="path282" d="M400.29-429.894c-.327.267-.632.723-1.045.789-.48.076-.881-.367-1.231-.8-.037-.044-.068,0-.064.055.055.844.415,1.7,1.24,1.783.752.079,1.227-.695,1.349-1.552.024-.16-.119-.385-.249-.279" fill="#17282f"/>
      <path id="path284" d="M411.324-418.659c-.269.372-.519.864-1,.988a3.629,3.629,0,0,1-1.512-.091.048.048,0,0,0-.047.079,1.852,1.852,0,0,0,1.843.441,1.461,1.461,0,0,0,.859-1.377c.007-.083-.1-.093-.141-.04" fill="#17282f"/>
      <path id="path286" d="M405.072-422.943s-.052,2.068.056,3.028c.009.089.247.105.575.088.017,0,.027.009.039,0a4.589,4.589,0,0,0,4.24-2.205c.056-.1-.076-.185-.157-.116a6.922,6.922,0,0,1-4.033,1.664c-.1-.259.207-3.537.053-3.532a8.4,8.4,0,0,0-2.124.74c-.017-4.309.657-8.587.576-12.876a.132.132,0,0,0-.259-.035c-1.023,4.432-1.113,9.392-1.209,13.843-.019.555,1.877-.389,2.244-.6" fill="#17282f"/>
      <path id="path288" d="M405.7-420.574a5.618,5.618,0,0,0,2.247,1.749,2.531,2.531,0,0,0,1.536.1c1.112-.289,1.141-1.309.94-2.181a6.036,6.036,0,0,0-.5-1.337,7.27,7.27,0,0,1-4.227,1.669" fill="#17282f"/>
      <path id="path290" d="M407.944-418.824a2.531,2.531,0,0,0,1.536.1c1.112-.289,1.141-1.309.94-2.181a2.613,2.613,0,0,0-2.476,2.081" fill="#f578ba"/>
      <path id="path292" d="M545.172-83.065c1.505,2.953,2.973,5.869,4.373,8.708.875,1.764,1.715,3.49,2.525,5.159,5.22,10.746,8.921,19.134,8.315,20.188-1.859,3.252-75.143,42.261-78.16,42.779-3.012.5-4.665-8.066-3.029-11.847,1-2.3,9.289-13.359,15.641-21.673a.139.139,0,0,0,.023-.04c4.089-5.336,7.363-9.552,7.363-9.552l-4.788-8.49-21.879-38.62,49.1-25.951s10.784,20.131,20.52,39.339" fill="#f68c95"/>
      <path id="path294" d="M482.227-6.235c3.013-.51,76.305-39.526,78.157-42.781.613-1.046-3.089-9.436-8.311-20.185-.371-.766-.755-1.544-1.137-2.323-9.416,5.671-41.751,33.172-57.548,38.7-5.66,1.983-.387-4.5-.387-4.5-6.027,7.9-12.895,17.158-13.8,19.24-1.633,3.779.013,12.345,3.027,11.848" fill="#fe5832"/>
      <path id="path296" d="M486.909-60.452c-.585-.281-34.969-73.788-43.617-101.15C432.055-197.15,418.7-265.073,415.66-278.671c0,0-9.76-23.153-12.648-48.793-.005-.045,65.8-.009,65.8-.009s17.26,33.015,8.361,56.34c-.815,2.137,13.187,75.521,19.548,88.87,5.5,11.544,45.745,91.771,46.832,92.326L486.909-60.452" fill="#273e47"/>
      <path id="path298" d="M533.208-100.655c-6.547,2.708-31.852,15.46-38.148,18.7q-2.58,1.326-5.159,2.66a39.094,39.094,0,0,0-5.1,2.848c-.1.07,0,.234.107.207a33.632,33.632,0,0,0,4.676-1.856c1.623-.71,3.236-1.447,4.847-2.184,3.22-1.476,35.507-18.02,38.867-20.2a.1.1,0,0,0-.092-.175" fill="#17282f"/>
      <path id="path300" d="M491.388-83.16c-5.553-12.454-32.105-77.339-36.771-91.628-4.635-14.192-8.521-28.625-12.191-43.093-3.729-14.709-7.235-29.476-10.82-44.221-3.636-14.953-7.2-29.964-9.9-45.119q-.514-2.882-1.005-5.765c-.023-.132-.253-.1-.235.037,2.164,15.3,5.116,30.463,8.5,45.532,3.352,14.944,7.016,29.821,10.728,44.68,3.636,14.555,7.483,29.064,11.985,43.38,4.479,14.241,37.569,94.72,39.509,96.324.119.1.265.014.2-.127" fill="#17282f"/>
      <path id="path302" d="M403.007-327.466c2.893,25.641,12.653,48.8,12.653,48.8,2.293,10.28,10.507,51.641,19.227,86.573l33.919-135.386s-65.8-.027-65.8.013" fill="#17282f"/>
      <path id="path304" d="M432.439-45.148c-.051,3.315-.115,6.58-.2,9.743-.051,1.968-.115,3.886-.179,5.741C431.651-17.725,431-8.579,429.975-7.931c-3.163,2.007-86.182,2.248-89.092,1.3s-.356-9.312,2.859-11.889C345.7-20.086,358.2-25.993,367.7-30.376a.167.167,0,0,0,.04-.024c6.109-2.808,10.973-5.005,10.973-5.005l-.267-9.743-.751-44.367h54.845s.269,22.837-.1,44.367" fill="#f68c95"/>
      <path id="path306" d="M442.23-268.591c-.012.039-5.627,53.373-8.256,80.238-.661,6.693-1.117,11.749-1.271,13.921-.064.851-.1,14.8-.127,33.037-.025,15.992,3.951,90.056,3.951,90.056H374.263s2.665-115.168,3.605-128.162c.115-1.509.216-3.06.319-4.648,2.451-36.8,3.8-90.374,21.847-143.316h68.873s1.7,30.651-12.447,53.147c0,0-10.127,3.421-14.231,5.727" fill="#273e47"/>
      <path id="path308" d="M431.868-64.8c-7.071-.433-35.405-.052-42.483.1q-2.9.062-5.8.132a39.243,39.243,0,0,0-5.831.331c-.117.02-.105.208.005.229a33.4,33.4,0,0,0,5.019.382c1.769.07,3.541.116,5.312.158,3.543.083,39.813-.651,43.785-1.136a.1.1,0,0,0,0-.2" fill="#17282f"/>
      <path id="path310" d="M408.555-319.953a455.759,455.759,0,0,0-11.412,47.373q-4.386,23.816-6.971,47.936c-1.769,16.273-3,32.608-3.82,48.959-.816,16.308-1.189,32.639-1.215,48.968s-.231,56.736-.107,58.78a.1.1,0,0,0,.209-.005c.088-16.24,1.236-36.173,1.272-52.416.035-16.33.324-32.665.989-48.984.66-16.207,1.707-32.392,3.3-48.533,1.608-16.275,3.727-32.492,6.539-48.6q4.17-23.89,9.981-47.461c.487-1.985,1-3.964,1.515-5.943a.146.146,0,0,0-.283-.071" fill="#17282f"/>
      <path id="path312" d="M463.878-277.367a13.668,13.668,0,0,1-6.519,3.388c-2.579.663-5.237,1.069-7.849,1.564a115.76,115.76,0,0,1-17.616,2.281,36.171,36.171,0,0,1-10.021-.792.1.1,0,0,0-.051.2,43.636,43.636,0,0,0,8.871,1.828,44.357,44.357,0,0,0,9.147-.257c3.084-.371,6.151-.967,9.188-1.613a67.05,67.05,0,0,0,8.124-2.109,14.864,14.864,0,0,0,6.864-4.361.094.094,0,0,0-.137-.129" fill="#17282f"/>
      <path id="path314" d="M340.886-6.631c2.912.945,85.92.7,89.085-1.3,1.035-.651,1.687-9.792,2.081-21.729.065-1.7.116-3.447.167-5.247-10.212,1.225-54.165,10.841-72.986,10.841-4.572,0,2.7-3.13,1.8-3.206-7.889,3.7-15.767,7.532-17.285,8.745-3.219,2.577-5.759,10.928-2.86,11.9" fill="#fe5832"/>
      <path id="path316" d="M400.632-346.667l-5.717,30.593s67.729.945,83.634-.176c0,0-16.632-64.775-33.733-83.344-8.555-9.287-18.6-8.593-25-2.1-1.62,1.644-20.944,27.184-22.98,36.941-1.776,8.609,3.795,18.085,3.795,18.085" fill="#d4d6d3"/>
      <path id="path318" d="M466.338-321.791a1.414,1.414,0,0,0-1.415,1.413,1.415,1.415,0,0,0,1.415,1.415,1.414,1.414,0,0,0,1.413-1.415A1.413,1.413,0,0,0,466.338-321.791Zm-17.228,0a1.414,1.414,0,0,0-1.415,1.413,1.415,1.415,0,0,0,1.415,1.415,1.415,1.415,0,0,0,1.415-1.415A1.415,1.415,0,0,0,449.11-321.791Zm-17.229,0a1.413,1.413,0,0,0-1.412,1.413,1.413,1.413,0,0,0,1.412,1.415,1.415,1.415,0,0,0,1.415-1.415A1.414,1.414,0,0,0,431.88-321.791Zm-17.228,0a1.413,1.413,0,0,0-1.413,1.413,1.413,1.413,0,0,0,1.413,1.415,1.415,1.415,0,0,0,1.415-1.415A1.414,1.414,0,0,0,414.652-321.791Zm-17.228,0a1.413,1.413,0,0,0-1.413,1.413,1.414,1.414,0,0,0,1.413,1.415,1.415,1.415,0,0,0,1.415-1.415A1.414,1.414,0,0,0,397.424-321.791Zm68.913-24.721a1.413,1.413,0,0,0-1.415,1.413,1.415,1.415,0,0,0,1.415,1.415,1.414,1.414,0,0,0,1.413-1.415A1.412,1.412,0,0,0,466.338-346.512Zm-17.228,0a1.413,1.413,0,0,0-1.415,1.413,1.415,1.415,0,0,0,1.415,1.415,1.415,1.415,0,0,0,1.415-1.415A1.414,1.414,0,0,0,449.11-346.512Zm-17.229,0a1.412,1.412,0,0,0-1.412,1.413,1.413,1.413,0,0,0,1.412,1.415,1.415,1.415,0,0,0,1.415-1.415A1.413,1.413,0,0,0,431.88-346.512Zm-17.228,0a1.412,1.412,0,0,0-1.413,1.413,1.413,1.413,0,0,0,1.413,1.415,1.415,1.415,0,0,0,1.415-1.415A1.413,1.413,0,0,0,414.652-346.512Zm59.041,13.08a1.3,1.3,0,0,0-.16.64,1.384,1.384,0,0,0,.708,1.213c-.173-.6-.361-1.227-.548-1.853Zm-15.971-.773a1.413,1.413,0,0,0-1.415,1.413,1.415,1.415,0,0,0,1.415,1.415,1.415,1.415,0,0,0,1.415-1.415A1.413,1.413,0,0,0,457.723-334.206Zm-17.228,0a1.412,1.412,0,0,0-1.413,1.413,1.413,1.413,0,0,0,1.413,1.415,1.415,1.415,0,0,0,1.415-1.415A1.413,1.413,0,0,0,440.495-334.206Zm-17.228,0a1.412,1.412,0,0,0-1.413,1.413,1.413,1.413,0,0,0,1.413,1.415,1.415,1.415,0,0,0,1.415-1.415A1.414,1.414,0,0,0,423.267-334.206Zm-17.228,0a1.412,1.412,0,0,0-1.413,1.413,1.413,1.413,0,0,0,1.413,1.415,1.415,1.415,0,0,0,1.415-1.415A1.414,1.414,0,0,0,406.039-334.206Zm43.071-37.028a1.413,1.413,0,0,0-1.415,1.413,1.413,1.413,0,0,0,1.415,1.413,1.414,1.414,0,0,0,1.415-1.413A1.414,1.414,0,0,0,449.11-371.234Zm-17.229,0a1.412,1.412,0,0,0-1.412,1.413,1.412,1.412,0,0,0,1.412,1.413,1.413,1.413,0,0,0,1.415-1.413A1.413,1.413,0,0,0,431.88-371.234Zm-17.228,0a1.412,1.412,0,0,0-1.413,1.413,1.412,1.412,0,0,0,1.413,1.413,1.413,1.413,0,0,0,1.415-1.413A1.413,1.413,0,0,0,414.652-371.234ZM398.814-370.1c-.239.507-.465,1.013-.667,1.493a1.434,1.434,0,0,0,.693-1.213,1.819,1.819,0,0,0-.027-.28Zm58.909,11.172a1.414,1.414,0,0,0-1.415,1.413,1.414,1.414,0,0,0,1.415,1.413,1.413,1.413,0,0,0,1.415-1.413A1.413,1.413,0,0,0,457.723-358.927Zm-17.228,0a1.412,1.412,0,0,0-1.413,1.413,1.412,1.412,0,0,0,1.413,1.413,1.413,1.413,0,0,0,1.415-1.413A1.413,1.413,0,0,0,440.495-358.927Zm-17.228,0a1.412,1.412,0,0,0-1.413,1.413,1.412,1.412,0,0,0,1.413,1.413,1.413,1.413,0,0,0,1.415-1.413A1.413,1.413,0,0,0,423.267-358.927Zm-17.228,0a1.412,1.412,0,0,0-1.413,1.413,1.412,1.412,0,0,0,1.413,1.413,1.414,1.414,0,0,0,1.415-1.413A1.414,1.414,0,0,0,406.039-358.927ZM448.082-395.5a1.356,1.356,0,0,0-.388.96,1.423,1.423,0,0,0,1.413,1.413,1.314,1.314,0,0,0,.507-.093c-.507-.787-1.027-1.56-1.532-2.28Zm-16.2-.456a1.412,1.412,0,0,0-1.412,1.413,1.412,1.412,0,0,0,1.412,1.413,1.413,1.413,0,0,0,1.415-1.413A1.414,1.414,0,0,0,431.88-395.955Zm-16.627.136q-.778,1.06-1.64,2.24a1.422,1.422,0,0,0,1.04.453,1.424,1.424,0,0,0,1.415-1.413,1.406,1.406,0,0,0-.815-1.28Zm25.241,12.171a1.412,1.412,0,0,0-1.413,1.413,1.412,1.412,0,0,0,1.413,1.413,1.413,1.413,0,0,0,1.415-1.413A1.413,1.413,0,0,0,440.495-383.648Zm-17.228,0a1.412,1.412,0,0,0-1.413,1.413,1.412,1.412,0,0,0,1.413,1.413,1.413,1.413,0,0,0,1.415-1.413A1.413,1.413,0,0,0,423.267-383.648Zm-15.813,1.416a1.423,1.423,0,0,1-1.413,1.413,1.3,1.3,0,0,1-.905-.347c.493-.787,1-1.56,1.505-2.347a1.408,1.408,0,0,1,.813,1.28" fill="#fff"/>
      <path id="path320" d="M457.407-378.96q2.43,5.344,4.672,10.785-.358-1.644-.807-3.261c-.044-.161.192-.211.247-.061a22.818,22.818,0,0,1,1.217,4.916,322.519,322.519,0,0,1,12.277,36.069c.633,2.309,1.275,4.625,1.809,6.96.555,2.421,1.288,4.844,1.6,7.313a.108.108,0,0,1-.209.052c-.787-2.051-1.321-4.231-1.921-6.343-.579-2.029-1.191-4.053-1.8-6.075-1.237-4.136-2.484-8.271-3.779-12.389-2.559-8.139-5.384-16.192-8.251-24.225-1.641-4.595-3.447-9.135-5.224-13.677-.037-.093.121-.156.165-.064" fill="#17282f"/>
      <path id="path322" d="M426.108-389.836c-4.155,9.22-26.083,46.272-38.011,50.273-18.7,6.276-41.624,2.276-53.705,1.167-6.755-.62-.085-41.208,7.131-38.815,9.883,3.281,33.911,6.4,37.46,6.284s20.776-17.523,33.964-27.823c12.224-9.548,20.033-6.335,13.161,8.913" fill="#f68c95"/>
      <path id="path324" d="M281.817-379.96c-.5,5.905,20.159,6.727,20.159,6.727a8.188,8.188,0,0,0-3.8,4.072c-1.18,3.161,3.26,6.4,3.26,6.4a10.1,10.1,0,0,0-3.325,4.935c-.825,3.139,3.191,7.044,3.191,7.044a8.854,8.854,0,0,0-.193,6.18c2.033,5.315,10.56,6.983,15.971,8.1s21.48-.231,25.488-1.051l7.52-36.465a100.336,100.336,0,0,0-29.973-10.289c-5.455-.888-37.727-2.333-38.293,4.352" fill="#f68c95"/>
      <path id="path326" d="M302.335-373.739c5.951-1.043,11.885-.267,17.855.171a.1.1,0,0,1-.017.207c-5.931-.5-11.884.176-17.823-.091a.145.145,0,0,1-.015-.287" fill="#17282f"/>
      <path id="path328" d="M301.641-363.194a15.777,15.777,0,0,1,4.113.223q2.174.27,4.336.612c2.887.453,5.765.973,8.624,1.577.127.027.117.227-.017.207-2.879-.448-5.763-.852-8.657-1.179q-2.172-.244-4.348-.455a18.76,18.76,0,0,1-4.081-.587.209.209,0,0,1,.031-.4" fill="#17282f"/>
      <path id="path330" d="M301.419-350.771a10.976,10.976,0,0,1,3.692.4q1.966.35,3.937.68c2.627.44,5.253.877,7.893,1.225.132.017.116.223-.017.207-2.684-.34-5.373-.643-8.055-1.005q-1.976-.268-3.948-.557a10.3,10.3,0,0,1-3.531-.817.074.074,0,0,1,.028-.132" fill="#17282f"/>
      <path id="path332" d="M351.012-376.118l-3.235,44.379s37.733-2.557,43.7-6.875c7.121-5.155,31.361-38.9,37.005-52.529s-1.876-18.213-13.672-9.379-32.736,26.411-34.351,27.235-29.445-2.831-29.445-2.831" fill="#d4d6d3"/>
      <path id="path334" d="M397.427-346.512a1.4,1.4,0,0,0-1.412,1.413,1.406,1.406,0,0,0,.733,1.24c.572-.653,1.172-1.347,1.8-2.093a1.381,1.381,0,0,0-1.12-.56Zm-17.231,0a1.413,1.413,0,0,0-1.413,1.413,1.414,1.414,0,0,0,1.413,1.415,1.415,1.415,0,0,0,1.415-1.415A1.413,1.413,0,0,0,380.2-346.512Zm-17.227,0a1.413,1.413,0,0,0-1.415,1.413,1.415,1.415,0,0,0,1.415,1.415,1.414,1.414,0,0,0,1.413-1.415A1.413,1.413,0,0,0,362.97-346.512Zm8.617,12.307a1.343,1.343,0,0,0-.76.227c.4-.053.8-.107,1.2-.147A1.169,1.169,0,0,0,371.587-334.206Zm-17.227,0a1.418,1.418,0,0,0-1.427,1.413,1.3,1.3,0,0,0,.16.64c.8-.067,1.68-.147,2.613-.213a1.457,1.457,0,0,0,.067-.427A1.413,1.413,0,0,0,354.36-334.206Zm60.292-37.028a1.412,1.412,0,0,0-1.413,1.413,1.412,1.412,0,0,0,1.413,1.413,1.413,1.413,0,0,0,1.415-1.413A1.413,1.413,0,0,0,414.652-371.234Zm-17.228,0a1.412,1.412,0,0,0-1.413,1.413,1.412,1.412,0,0,0,1.413,1.413,1.413,1.413,0,0,0,1.415-1.413A1.413,1.413,0,0,0,397.424-371.234Zm-17.228,0a1.413,1.413,0,0,0-1.413,1.413,1.413,1.413,0,0,0,1.413,1.413,1.414,1.414,0,0,0,1.415-1.413A1.413,1.413,0,0,0,380.2-371.234Zm-17.227,0a1.413,1.413,0,0,0-1.415,1.413,1.414,1.414,0,0,0,1.415,1.413,1.413,1.413,0,0,0,1.413-1.413A1.413,1.413,0,0,0,362.97-371.234Zm43.069,12.307a1.412,1.412,0,0,0-1.413,1.413,1.412,1.412,0,0,0,1.413,1.413,1.414,1.414,0,0,0,1.415-1.413A1.414,1.414,0,0,0,406.039-358.927Zm-17.229,0a1.412,1.412,0,0,0-1.412,1.413,1.412,1.412,0,0,0,1.412,1.413,1.414,1.414,0,0,0,1.415-1.413A1.414,1.414,0,0,0,388.81-358.927Zm-17.227,0a1.414,1.414,0,0,0-1.415,1.413,1.413,1.413,0,0,0,1.415,1.413A1.413,1.413,0,0,0,373-357.514,1.413,1.413,0,0,0,371.583-358.927Zm-17.228,0a1.413,1.413,0,0,0-1.415,1.413,1.413,1.413,0,0,0,1.415,1.413,1.412,1.412,0,0,0,1.413-1.413A1.412,1.412,0,0,0,354.355-358.927Zm60.3-37.028a1.412,1.412,0,0,0-1.413,1.413,1.412,1.412,0,0,0,1.413,1.413,1.414,1.414,0,0,0,1.415-1.413A1.414,1.414,0,0,0,414.652-395.955Zm8.615,12.309a1.4,1.4,0,0,0-1.412,1.413,1.4,1.4,0,0,0,1.239,1.4c.44-.773.88-1.52,1.293-2.253a1.345,1.345,0,0,0-1.12-.56Zm-15.813,1.411a1.414,1.414,0,0,1-1.415,1.413,1.412,1.412,0,0,1-1.413-1.413,1.412,1.412,0,0,1,1.413-1.413,1.414,1.414,0,0,1,1.415,1.413" fill="#fff"/>
      <path id="path336" d="M400.039-347.772c.4-.587,16.057-21.915,19.693-27.909,1.181-1.945,2.4-4.013,3.591-5.82.072-.109.26.013.2.139-.551,1.195-1,2.221-1.6,3.277-.284.5-.571,1.007-.856,1.511.659-.7,1.36-1.347,2.071-1.995.079-.071.2.023.129.109-.639.789-1.275,1.571-1.977,2.3-.323.336-.647.659-.993.969l-.033.028c-.028.051-.056.1-.085.153a212.517,212.517,0,0,1-19.976,27.34c-.1.1-.249.016-.167-.105" fill="#17282f"/>
      <path id="path338" d="M360.143-371.779c.015-.113.187-.124.189-.008.167,6.123-1.683,32.977-2.333,36.468-.02.1-.2.091-.195-.016.363-12.636.935-25.124,2.339-36.444" fill="#17282f"/>
      <path id="path340" d="M409.884-457.407c-1.38.764-10.673,1.619-12.247,9.143-1.2,5.727,2.585,8.808,7.939,9.247,5.9.484,12.38-3.285,12.38-3.285,1.275,5.828,2.956,13.329,5.151,14.184,1.788.695,3.864-1.829,3.864-1.829,2.2,4.545,2.945,14.823,2.416,17.033-1.244,5.212-5.315,12.879,1.419,18.412,1.476,1.213,7.205,3.221,12.809.436s5.905-7.481,7.912-9.4,8.677-2.648,10.228-6.728.432-8.261,1.081-10.223,3.323-2.755,3.505-6.768-3.843-4.909-5.464-7.681c-1.128-1.932-.056-4.547-2.591-7.173-3.484-3.613-8.4-.585-12.176-4.213-2.965-2.845-11.005-14.007-21.549-15.22a20.838,20.838,0,0,0-14.677,4.068" fill="#17282f"/>
      <path id="path342" d="M434.095-457.375c2.676,1.875,4.82,4.327,7.184,6.5,1.185,1.085,2.328,2.215,3.581,3.188a10.176,10.176,0,0,0,1.953,1.249,1.459,1.459,0,0,0,.495.176,1.827,1.827,0,0,0,.531.085c.4.027.815.025,1.232.019a49.75,49.75,0,0,1,5.131.069,8.094,8.094,0,0,1,4.773,1.848,4.7,4.7,0,0,1,1.385,2.163,6.57,6.57,0,0,1,.111,2.571,10.4,10.4,0,0,0,.08,4.885,9.584,9.584,0,0,1-.613-4.88,6.063,6.063,0,0,0-.236-2.332,4.051,4.051,0,0,0-1.309-1.775,7.926,7.926,0,0,0-4.365-1.516c-1.629-.137-3.313,0-5.04.029-.432,0-.867-.008-1.308-.045a3.573,3.573,0,0,1-1.363-.369,10.95,10.95,0,0,1-2.117-1.408,36.513,36.513,0,0,1-3.54-3.365l-3.256-3.579a38.47,38.47,0,0,0-3.308-3.512" fill="#17282f"/>
      <path id="path344" d="M463.851-421.992a8.35,8.35,0,0,0,.232,3.367c.191,1.127.385,2.261.521,3.412a16.811,16.811,0,0,1,.107,3.509,7.56,7.56,0,0,1-1.073,3.477c-1.511,2.1-3.972,2.908-6.2,3.356-1.136.228-2.269.389-3.375.633a7.1,7.1,0,0,0-3.112,1.255,6.635,6.635,0,0,1,2.983-1.739c1.108-.349,2.231-.6,3.319-.913,2.141-.6,4.351-1.441,5.54-3.163a6.768,6.768,0,0,0,.96-3,20.72,20.72,0,0,0,.075-3.349c-.04-1.133-.147-2.269-.236-3.415-.029-.576-.056-1.152-.057-1.732a3.343,3.343,0,0,1,.32-1.695" fill="#17282f"/>
      <path id="path346" d="M419.2-443.862a18.267,18.267,0,0,1-3.7,2.856,17.646,17.646,0,0,1-4.213,1.828,16.078,16.078,0,0,1-2.243.5l-1.141.172-1.157.068c-.773.085-1.548,0-2.333.013-.783-.016-1.557-.141-2.36-.165.755.236,1.525.456,2.305.632a16.158,16.158,0,0,0,2.392.267,14.862,14.862,0,0,0,4.805-.567,14.129,14.129,0,0,0,4.355-2.125,11.735,11.735,0,0,0,3.287-3.477" fill="#17282f"/>
      <path id="path348" d="M418.546-444.992a25.061,25.061,0,0,0-.413,9.316,13.775,13.775,0,0,0,1.436,4.523,5.932,5.932,0,0,0,3.539,3.035,6.864,6.864,0,0,1-2.871-3.367,17.489,17.489,0,0,1-1.157-4.337,64.965,64.965,0,0,1-.533-9.169" fill="#17282f"/>
      <path id="path350" d="M425.194-428.226s3.6-6.773,6.625-5.561.841,10.657-2.333,12.3a3.4,3.4,0,0,1-4.751-1.265l.459-5.473" fill="#f68c95"/>
      <path id="path352" d="M431.127-431.095c.053-.011.071.063.028.088-2.216,1.227-3.181,3.539-3.767,5.884a1.88,1.88,0,0,1,2.731-.851c.067.036.019.139-.048.133a2.1,2.1,0,0,0-2.2,1,10.1,10.1,0,0,0-.871,1.985c-.083.221-.473.156-.423-.095,0-.017.008-.037.012-.056-.42-2.965,1.383-7.405,4.539-8.093" fill="#17282f"/>
      <path id="path354" d="M293.186-317.819l5.221,12.607-5.215,2.159-5.251-12.693-8.617,6.685v-35.516l24.863,25.116-11,1.643" fill="#17282f"/>
      <path id="path356" d="M281.761-353.94a20.8,20.8,0,0,1-.665-5.536,20.6,20.6,0,0,1,.665-5.537,20.544,20.544,0,0,1,.667,5.537,20.8,20.8,0,0,1-.667,5.536" fill="#17282f"/>
      <path id="path358" d="M272.225-349.99a20.833,20.833,0,0,1-4.387-3.444,20.647,20.647,0,0,1-3.444-4.387,20.613,20.613,0,0,1,4.387,3.444,20.835,20.835,0,0,1,3.444,4.387" fill="#17282f"/>
      <path id="path360" d="M268.274-340.454a20.806,20.806,0,0,1-5.536.667,20.593,20.593,0,0,1-5.537-.667,20.589,20.589,0,0,1,5.537-.665,20.8,20.8,0,0,1,5.536.665" fill="#17282f"/>
      <path id="path362" d="M272.225-330.917a20.792,20.792,0,0,1-3.444,4.385,20.53,20.53,0,0,1-4.387,3.444,20.637,20.637,0,0,1,3.444-4.385,20.835,20.835,0,0,1,4.387-3.444" fill="#17282f"/>
      <path id="path364" d="M295.249-340.454a20.8,20.8,0,0,1,5.536-.665,20.585,20.585,0,0,1,5.536.665,20.589,20.589,0,0,1-5.536.667,20.8,20.8,0,0,1-5.536-.667" fill="#17282f"/>
      <path id="path366" d="M291.3-349.99a20.833,20.833,0,0,1,3.444-4.387,20.616,20.616,0,0,1,4.387-3.444,20.733,20.733,0,0,1-3.444,4.387,20.9,20.9,0,0,1-4.387,3.444" fill="#17282f"/>
      <path id="path368" d="M71.537-135.408c8.466-17.4,23.28-26.337,39.976-21.4s19.283,28.218,6.82,34.1S93.406-134,86.822-137.524s-15.285,2.116-15.285,2.116" fill="#fe5832"/>
      <path id="path370" d="M63.342-89.088c.044-2.1.124-4.195.2-6.292.148-4.188.29-8.375.445-12.563.285-7.66,1.11-15.18,4.283-22.242A34.484,34.484,0,0,1,81.7-145.662a28.283,28.283,0,0,1,7.059-3.045A16.492,16.492,0,0,1,97-153.233a33.607,33.607,0,0,1,11.745-.295c.14.016.135.239-.006.221a28.23,28.23,0,0,0-11.111.791,23.474,23.474,0,0,0-4.476,1.74,21.635,21.635,0,0,0-2.589,1.643,23.993,23.993,0,0,1,10.2.1,22.858,22.858,0,0,1,3.54,1.169,10.418,10.418,0,0,1,2.782-.237,16.5,16.5,0,0,1,3.616.516,27.274,27.274,0,0,1,6.868,3c.124.071.008.256-.116.188a25.57,25.57,0,0,0-6.7-2.527,22.577,22.577,0,0,0-3.445-.505,17.085,17.085,0,0,0-1.92.016,22.139,22.139,0,0,1,10.8,10.757c.058.129-.136.237-.194.107-2.5-5.659-7.843-9.521-13.757-11.028-.369-.095-.744-.144-1.117-.216a16.026,16.026,0,0,1,.178,1.683q.168,1.27.424,2.527a42.8,42.8,0,0,0,1.359,5.092,39.837,39.837,0,0,0,2.023,4.94,23.552,23.552,0,0,0,2.822,4.767.109.109,0,1,1-.176.128c-1-1.57-2.17-3.017-3.085-4.651a34.934,34.934,0,0,1-2.263-4.859,32.981,32.981,0,0,1-1.489-5.216q-.274-1.406-.439-2.831a6.55,6.55,0,0,1-.106-1.727,22.8,22.8,0,0,0-5.929-.121c.741,4.151,1.537,8.477,3.863,12.081.077.12-.127.235-.194.107a48.389,48.389,0,0,1-2.868-5.936,22.546,22.546,0,0,1-1.432-6.184,27.353,27.353,0,0,0-9.8,3.288A32.378,32.378,0,0,0,70.95-130.43c-3.135,6.439-4.394,13.367-4.837,20.464-.557,8.895-.672,17.844-1.561,26.712-.058.579-.977.773-1.089.12a31.528,31.528,0,0,1-.122-5.954" fill="#17282f"/>
      <path id="path372" d="M82.908-147.058a9.851,9.851,0,0,1,1.923-1.775c.693-.575,1.4-1.128,2.15-1.635a15.985,15.985,0,0,1,4.81-2.231.111.111,0,0,1,.053.215A12.737,12.737,0,0,0,87.1-150.15c-.707.519-1.387,1.076-2.049,1.652a12.177,12.177,0,0,1-1.942,1.651.151.151,0,0,1-.2-.211" fill="#17282f"/>
      <path id="path374" d="M109.926-140.749a51.044,51.044,0,0,1,3.883,5.136,31.234,31.234,0,0,1,2.888,5.725c.022.06-.072.095-.1.041a68.471,68.471,0,0,0-6.829-10.752c-.091-.108.07-.261.16-.151" fill="#17282f"/>
      <path id="path376" d="M91.713-142.473a12.549,12.549,0,0,0,.957,3.149,20.878,20.878,0,0,0,1.612,2.789c.039.059-.051.12-.1.071a11.307,11.307,0,0,1-2.686-5.955c-.022-.14.191-.2.215-.055" fill="#17282f"/>
      <path id="path378" d="M64.523-134.98S52.536-150.045,29.4-144.7C7.409-139.629-2.74-99.3,19.482-94.481s18.3-32.492,26.4-38.824c5.942-4.647,14.487-3.647,18.64-1.675" fill="#fe5832"/>
      <path id="path380" d="M11.531-122.682a44.99,44.99,0,0,1,4.766-3.655,20.778,20.778,0,0,1,5.083-2.537,30.618,30.618,0,0,1,3.016-3.879,29.806,29.806,0,0,1,6.992-5.568c-.23-.015-.459-.039-.689-.047a36.388,36.388,0,0,0-3.678.036,20.59,20.59,0,0,0-7.14,1.779c-.13.059-.225-.144-.094-.2a32.58,32.58,0,0,1,7.129-2.148,20.023,20.023,0,0,1,3.614-.311c.648.007,1.3.049,1.944.113.12.012.245.019.371.029a31.059,31.059,0,0,1,6.669-2.452c-.216-.057-.427-.125-.644-.175a32.076,32.076,0,0,0-3.43-.564,26.916,26.916,0,0,0-6.922.107c-.142.02-.181-.2-.04-.217a43.817,43.817,0,0,1,7-.283,29.472,29.472,0,0,1,5.82.755,30.581,30.581,0,0,1,4.219-.483c8.067-.341,16.861,2.676,21.827,9.3,4.983,6.651,5.94,15.492,6.818,23.5a178.359,178.359,0,0,1,.884,33.628c-.053.663-.981.541-1-.088-.3-9.508-.638-19.019-1.549-28.493-.421-4.387-.889-8.791-1.618-13.139a38.736,38.736,0,0,0-3.19-10.82,19.8,19.8,0,0,0-7.809-8.395,26.357,26.357,0,0,0-11.061-3.4,29.774,29.774,0,0,0-10.38.972,6.816,6.816,0,0,1,.059,2.047,11.547,11.547,0,0,1-.507,2.529,13.233,13.233,0,0,1-.968,2.244c-.428.795-.967,1.5-1.444,2.264-.076.12-.27-.016-.18-.128a10.524,10.524,0,0,0,1.793-4.56,18.323,18.323,0,0,0,.278-2.36c.031-.595-.021-1.2.006-1.788a30.564,30.564,0,0,0-10.1,5.332c-.563.451-1.105.928-1.636,1.417a11.258,11.258,0,0,1,1.961,2.409,23.646,23.646,0,0,1,2.057,3.664,31.077,31.077,0,0,1,2.14,8.048c.021.14-.2.181-.218.04a23.318,23.318,0,0,0-2.632-7.627,30.906,30.906,0,0,0-2.051-3.39c-.391-.556-.794-1.107-1.215-1.64-.227-.286-.475-.579-.69-.886a31.908,31.908,0,0,0-6.561,9.241c.015.007.03.007.043.019a15.72,15.72,0,0,1,2.711,3.9,36.441,36.441,0,0,1,2.167,4.63,77.823,77.823,0,0,1,2.761,9.435c.034.137-.19.18-.217.039a39.582,39.582,0,0,0-3.282-9.289q-1.034-2.178-2.19-4.288a39.788,39.788,0,0,1-2.173-4.045,29.709,29.709,0,0,0-2.64,10.717c-.007.141-.231.121-.22-.02a37.392,37.392,0,0,1,5.194-16.447c-1.416.6-2.834,1.185-4.2,1.917a23.6,23.6,0,0,0-4.811,3.381c-.1.1-.25-.077-.142-.169" fill="#17282f"/>
      <path id="path382" d="M28.5-121.829c.694,2.284,1.568,4.5,2.194,6.81a26.228,26.228,0,0,1,1.022,6.8c0,.063-.1.065-.109,0a66.11,66.11,0,0,0-3.315-13.549.11.11,0,1,1,.208-.067" fill="#17282f"/>
      <path id="path384" d="M13.842-127.5a12.829,12.829,0,0,1,3.064-2.188,22.05,22.05,0,0,1,3.547-1.256c.133-.04.181.187.039.218a13.889,13.889,0,0,0-3.412,1.405,25.586,25.586,0,0,0-3.145,1.931.072.072,0,0,1-.093-.109" fill="#17282f"/>
      <path id="path386" d="M53.13-155.1S50.919-182.166,30.8-190.94c-16.8-7.325-26.422,11.556-14.543,23.113,9.609,9.349,25.018,5.131,36.877,12.725" fill="#fe5832"/>
      <path id="path388" d="M19.974-185.7a84.858,84.858,0,0,1,8.948,4.237,67.078,67.078,0,0,1,6.948,4.612c-.334-.684-.624-1.4-.961-2.069-.526-1.045-1.088-2.069-1.71-3.06a28.613,28.613,0,0,0-4.431-5.609c-.1-.1.06-.256.16-.153a44.34,44.34,0,0,1,4.666,5.432,32.209,32.209,0,0,1,1.912,3.061,12.238,12.238,0,0,1,1.352,3.117c.072.056.15.105.222.161a66.189,66.189,0,0,1,9.61,9.4c-.056-.267-.112-.531-.182-.776q-.564-1.98-1.219-3.932a33.575,33.575,0,0,0-3.635-7.895c-.078-.117.12-.228.193-.107a62.888,62.888,0,0,1,4.212,7.7,29.061,29.061,0,0,1,1.39,4,16.978,16.978,0,0,1,.655,2.719c.877,1.109,1.739,2.232,2.552,3.388,8.637,12.3,12.974,27.172,14.014,42.053a129.115,129.115,0,0,1,.224,13.333A83.33,83.33,0,0,1,63.714-92.7c-.055.28-.493.2-.486-.079.1-3.908.505-7.8.58-11.717a117.338,117.338,0,0,0-.378-11.75,109.24,109.24,0,0,0-4.388-23.032A82.443,82.443,0,0,0,48.81-160.928c-.847-.169-1.687-.4-2.521-.613-1.005-.259-2.011-.516-3.01-.8a30.154,30.154,0,0,1-5.61-2.057c-.125-.063-.008-.26.117-.187a18.105,18.105,0,0,0,5.689,1.961c1.574.315,3.21.519,4.788.881a76.1,76.1,0,0,0-4.679-6.151,34.9,34.9,0,0,1-11.448-.853,46.582,46.582,0,0,1-5.859-1.824c-2.016-.776-3.923-1.776-5.913-2.607-.148-.061-.045-.281.091-.2,3.413,2.072,7.7,3.135,11.6,3.8a71.908,71.908,0,0,0,10.855.9c-1.43-1.64-2.906-3.237-4.482-4.739-5.285-5.033-11.563-9.659-18.523-12.069-.136-.047-.065-.267.064-.212" fill="#17282f"/>
      <path id="path390" d="M36.348-185.614a30.488,30.488,0,0,1,2.467,3.608,19.723,19.723,0,0,1,1.776,4.2.045.045,0,0,1-.082.031c-.67-1.327-1.238-2.7-1.917-4.025a20.075,20.075,0,0,0-2.4-3.659c-.091-.109.072-.264.16-.153" fill="#17282f"/>
      <path id="path392" d="M17.638-176.6a20.68,20.68,0,0,0,4.125,1.721,37.872,37.872,0,0,0,4.2,1.129c.066.013.048.127-.019.119a20.477,20.477,0,0,1-4.351-.953,36.581,36.581,0,0,1-4.075-1.828c-.125-.061-.008-.26.117-.188" fill="#17282f"/>
      <path id="path394" d="M68.772-159.972c.126,1.169,3.044-9.825,20.056-19.588,15.452-8.865,33.893-31.923,18.744-46.489-12.228-11.757-44.444,13.873-38.8,66.077" fill="#fe5832"/>
      <path id="path396" d="M57.061-96.931a301.474,301.474,0,0,1,2.7-34.208,153.974,153.974,0,0,1,7.188-30.62c1.267-3.579,2.711-7.1,4.281-10.564a24.351,24.351,0,0,1,.07-4.048c.083-1.733.24-3.463.4-5.189s.335-3.453.541-5.176.571-3.441.642-5.161a.11.11,0,1,1,.216.036,36.566,36.566,0,0,0-.611,5.476c-.129,1.669-.225,3.339-.277,5.012s-.043,3.349-.044,5.024c0,.6.032,1.244.055,1.891,1.6-3.383,3.316-6.711,5.171-9.952-1.151-7.053.344-14.428,1.786-21.324.029-.139.24-.075.211.064a60.081,60.081,0,0,0-1.122,10.933c-.066,2.9.07,5.792.081,8.688.409-.693.815-1.389,1.234-2.075q3.308-5.406,7.066-10.56a16.55,16.55,0,0,1,.165-5.023,38.952,38.952,0,0,1,1.233-5.5c.543-1.8,1.166-3.571,1.883-5.311.738-1.789,1.72-3.483,2.43-5.276.059-.151.282-.048.2.089a25.944,25.944,0,0,0-2.13,5.337,48.28,48.28,0,0,0-1.391,5.293c-.36,1.791-.654,3.584-.906,5.395-.166,1.2-.271,2.437-.479,3.648a130.462,130.462,0,0,1,11.914-13.865c.1-.1.245.056.152.161a156.81,156.81,0,0,0-17.3,23.529c-.186.313-.363.633-.547.948.937-.588,2.013-1.053,2.895-1.544q2.473-1.374,4.961-2.723,2.417-1.308,4.82-2.639c.824-.459,1.639-.933,2.478-1.364a19.8,19.8,0,0,0,2.884-1.6c.129-.1.267.1.129.176-1.636.9-3.085,2.237-4.665,3.247s-3.207,1.992-4.858,2.913c-3.025,1.688-6.31,2.9-9.287,4.647q-3.1,5.422-5.725,11.1,2.712-1.738,5.527-3.307c1.206-.677,2.414-1.341,3.637-1.985A17.909,17.909,0,0,0,88.1-184.4a.111.111,0,0,1,.153.16,32.3,32.3,0,0,1-6.536,4.548c-2.185,1.277-4.4,2.509-6.667,3.624q-2.729,5.978-4.924,12.175c-7.161,20.277-9.792,41.8-11.049,63.18-.375,6.375-.568,12.744-.647,19.128s.257,12.741.245,19.112c0,.186-.311.232-.337.037-.765-5.651-.9-11.4-1.146-17.092-.251-5.791-.254-11.612-.125-17.405" fill="#17282f"/>
      <path id="path398" d="M87.971-188.729a81.3,81.3,0,0,0,9.041-4.675,95.292,95.292,0,0,0,8.584-5.449c.045-.033.1.044.058.079a72.191,72.191,0,0,1-8.243,5.765,82.412,82.412,0,0,1-9.333,4.475c-.13.057-.237-.141-.107-.195" fill="#17282f"/>
      <path id="path400" d="M83.042-211.649c.253-.989.565-1.961.9-2.925a.088.088,0,0,1-.042-.113c.214-.548.441-1.092.664-1.637a2.043,2.043,0,0,1,.079-.195c.042-.1.085-.209.127-.313.013-.035.068-.019.056.016-.061.188-.107.377-.167.565a2.7,2.7,0,0,1-.091.312,80.659,80.659,0,0,0-2.522,11.552c-.019.123-.207.127-.2-.005a38.844,38.844,0,0,1,1.2-7.256" fill="#17282f"/>
      <path id="path402" d="M39.085-92.82,40.3-78.43l3.717,43.885h39.81L87.541-78.43,88.753-92.82H39.085" fill="#33535f"/>
      <path id="path404" d="M39.085-92.82,40.3-78.43H87.541L88.753-92.82H39.085" fill="#17282f"/>
      <path id="path406" d="M35.179-84.789H92.661V-98.595H35.179v13.806" fill="#33535f"/>
    </g>
  </g>
</svg>
